<?xml version="1.0" encoding="UTF-8"?>
<svg version="1.1" xmlns="http://www.w3.org/2000/svg" width="1024" height="1024">
<path d="M0 0 C337.92 0 675.84 0 1024 0 C1024 337.92 1024 675.84 1024 1024 C686.08 1024 348.16 1024 0 1024 C0 686.08 0 348.16 0 0 Z " fill="#FEFEFE" transform="translate(0,0)"/>
<path d="M0 0 C0.85206024 0.00215515 1.70412048 0.0043103 2.58200073 0.00653076 C36.6674522 0.14436887 67.89289095 7.21441312 98 23.3125 C98.60585938 23.63476562 99.21171875 23.95703125 99.8359375 24.2890625 C109.08926049 29.25918795 117.62673388 34.99024824 126 41.3125 C127.34964844 42.32183594 127.34964844 42.32183594 128.7265625 43.3515625 C171.54761492 76.85806576 197.35012905 128.53848278 204.12304688 181.9453125 C207.27678876 211.57581763 205.23044466 241.94269823 196 270.3125 C195.74234863 271.12090332 195.48469727 271.92930664 195.21923828 272.76220703 C185.95753491 301.31476525 169.50398412 325.66193478 149 347.3125 C148.11183594 348.25480469 147.22367188 349.19710938 146.30859375 350.16796875 C112.64258091 384.91207807 62.27443742 406.23898114 14.05297852 407.40820312 C10.46273087 407.45018846 6.87291693 407.45317594 3.2824707 407.44287109 C1.06910326 407.43751598 -1.14406058 407.44284795 -3.35742188 407.44921875 C-41.16394893 407.47373404 -79.11494506 397.36586875 -110.83056641 376.32080078 C-112.90743022 375.13633001 -112.90743022 375.13633001 -115.00805664 375.48730469 C-117.31401205 376.44258466 -119.2946127 377.59291382 -121.39453125 378.9453125 C-122.25651123 379.49695068 -123.11849121 380.04858887 -124.0065918 380.61694336 C-124.9325415 381.21772705 -125.85849121 381.81851074 -126.8125 382.4375 C-127.77647705 383.0569751 -128.7404541 383.6764502 -129.73364258 384.31469727 C-137.83580392 389.53103186 -145.90940115 394.79239835 -153.9699707 400.07275391 C-156.64367892 401.8239348 -159.32121948 403.5690898 -162 405.3125 C-163.00627441 405.97137207 -164.01254883 406.63024414 -165.04931641 407.30908203 C-166.0397998 407.95087402 -167.0302832 408.59266602 -168.05078125 409.25390625 C-168.95094971 409.83986572 -169.85111816 410.4258252 -170.77856445 411.02954102 C-173 412.3125 -173 412.3125 -175 412.3125 C-174.98588074 411.07762344 -174.97176147 409.84274689 -174.95721436 408.57044983 C-174.83090175 396.81988633 -174.7698162 385.07046731 -174.76940536 373.31920719 C-174.76718385 367.28033269 -174.74354138 361.24326567 -174.66748047 355.20483398 C-173.41680084 319.30996905 -173.41680084 319.30996905 -186.53115845 286.79400635 C-194.4969414 273.33636625 -197.64039772 255.62884691 -200 240.3125 C-200.17660156 239.20640381 -200.35320312 238.10030762 -200.53515625 236.96069336 C-201.92457286 227.58028359 -202.32414748 218.46552265 -202.25 209 C-202.24656586 208.27716827 -202.24313171 207.55433655 -202.23959351 206.80960083 C-202.17881983 195.87079176 -201.8954483 185.10608967 -200 174.3125 C-199.84934082 173.42933105 -199.69868164 172.54616211 -199.54345703 171.63623047 C-193.89440679 139.51641453 -182.13061576 109.79944186 -163 83.3125 C-162.26523437 82.25417969 -161.53046875 81.19585937 -160.7734375 80.10546875 C-133.11742162 41.4181207 -89.76143914 14.51946483 -43.6875 4 C-43.04417725 3.85264404 -42.40085449 3.70528809 -41.73803711 3.5534668 C-27.88425445 0.63210707 -14.10551932 -0.0644804 0 0 Z " fill="#021C2D" transform="translate(516,156.6875)"/>
<path d="M0 0 C2.5158558 2.21634915 4.96434766 4.48718752 7.3984375 6.79296875 C8.34332031 7.67339844 9.28820312 8.55382812 10.26171875 9.4609375 C37.33797676 35.2101448 53.67088181 70.70659297 59.02880859 107.31787109 C59.29705426 109.11408941 59.6036635 110.90471105 59.93334961 112.69067383 C65.5777784 150.34093978 55.3453789 193.39341189 32.97412109 224.15844727 C30.5147517 227.42451204 27.97646534 230.62007586 25.3984375 233.79296875 C24.91165527 234.39931152 24.42487305 235.0056543 23.92333984 235.63037109 C18.56565647 242.27562967 13.11575762 248.47841667 6.3984375 253.79296875 C5.26670414 254.7119651 4.13521605 255.63126353 3.00390625 256.55078125 C1.76147392 257.54949377 0.51797674 258.54688297 -0.7265625 259.54296875 C-1.31284424 260.01557129 -1.89912598 260.48817383 -2.50317383 260.97509766 C-6.02900652 263.75459346 -9.48928672 265.91807098 -13.6015625 267.79296875 C-13.1269489 262.01017671 -12.54462248 256.2525699 -11.81518555 250.49682617 C-10.34096026 238.73039675 -10.54893714 227.61620712 -11.6015625 215.79296875 C-10.539375 215.31988281 -9.4771875 214.84679687 -8.3828125 214.359375 C1.53623415 209.78261598 9.99568272 205.25329006 14.3359375 194.60546875 C16.85293405 185.57389288 17.17170578 176.69864911 15.3984375 167.48046875 C15.109375 165.0234375 15.109375 165.0234375 15.3984375 162.79296875 C17.15784623 160.7075782 19.07996303 159.25064859 21.26171875 157.6171875 C28.53597578 151.40680718 30.79407758 139.73338455 31.71875 130.64453125 C32.01946521 122.68560203 30.70565428 117.59862554 25.48046875 111.5859375 C21.06408733 106.99759079 16.27994391 103.00203226 11.26953125 99.0859375 C5.73446605 94.66541604 0.40484506 90.00804804 -4.890625 85.3046875 C-6.36346068 84.00334639 -7.85573818 82.72406903 -9.3515625 81.44921875 C-15.8795168 75.53877364 -18.5346379 68.87239825 -21.6015625 60.79296875 C-25.63949688 50.78225644 -32.25414526 43.72067808 -41.7890625 38.79296875 C-47.48878733 35.84111126 -50.36256336 32.97708185 -53.26953125 27.2421875 C-59.6222832 15.56132101 -72.87871259 9.42714206 -85.046875 5.7890625 C-110.74687376 -1.4125855 -137.47050243 1.65839289 -160.80029297 14.73730469 C-171.45419297 20.98120054 -182.01853025 29.25400761 -188.6015625 39.79296875 C-187.88355469 39.53902344 -187.16554688 39.28507812 -186.42578125 39.0234375 C-161.67862316 30.79493039 -130.93262448 29.01096818 -105.6015625 35.79296875 C-104.43367187 36.09460938 -103.26578125 36.39625 -102.0625 36.70703125 C-93.76500905 39.05321835 -84.24288935 41.86952216 -78.6015625 48.79296875 C-79.52775391 48.95732422 -79.52775391 48.95732422 -80.47265625 49.125 C-81.31957031 49.28355469 -82.16648437 49.44210937 -83.0390625 49.60546875 C-84.27462891 49.83169922 -84.27462891 49.83169922 -85.53515625 50.0625 C-88.45436504 50.68180465 -88.45436504 50.68180465 -90.56201172 51.56518555 C-96.97375879 54.06867677 -102.09214296 53.8017633 -108.8515625 52.98046875 C-110.99028286 52.76730289 -113.12963358 52.56037858 -115.26953125 52.359375 C-116.33478027 52.25898926 -117.4000293 52.15860352 -118.49755859 52.05517578 C-139.1329495 50.31202572 -160.51358731 52.36916749 -179.6015625 60.79296875 C-180.24673828 61.0765625 -180.89191406 61.36015625 -181.55664062 61.65234375 C-190.9939303 65.87452453 -198.9437467 70.74209619 -206.6015625 77.79296875 C-207.23191406 78.33179688 -207.86226563 78.870625 -208.51171875 79.42578125 C-224.0268703 93.49190953 -233.24740812 117.22965879 -234.6015625 137.79296875 C-235.18685675 151.68932623 -235.33886314 165.31199145 -231.6015625 178.79296875 C-231.2715625 178.79296875 -230.9415625 178.79296875 -230.6015625 178.79296875 C-230.39402344 177.56964844 -230.18648438 176.34632813 -229.97265625 175.0859375 C-224.39066396 143.87553713 -211.0604128 118.26543185 -186.6015625 97.79296875 C-185.60640625 96.94992187 -184.61125 96.106875 -183.5859375 95.23828125 C-169.71139564 83.8278269 -145.08530977 69.67274164 -126.6015625 70.79296875 C-129.43961291 73.10597983 -132.41510094 74.79275125 -135.67700195 76.44311523 C-146.83209852 82.09354028 -156.24365699 89.32550098 -165.42578125 97.8046875 C-167.17157624 99.40003696 -168.93444352 100.89232607 -170.7890625 102.35546875 C-196.7175354 124.82681193 -209.72527123 159.42799001 -212.6015625 192.79296875 C-213.87747638 211.9316769 -210.09078829 233.6756732 -197.82421875 249.015625 C-197.42074219 249.60214844 -197.01726562 250.18867188 -196.6015625 250.79296875 C-198.37878379 256.12463261 -204.40009943 258.09522 -209.18945312 260.59570312 C-237.7924271 274.79296875 -237.7924271 274.79296875 -245.6015625 274.79296875 C-245.51592041 274.19572998 -245.43027832 273.59849121 -245.34204102 272.9831543 C-244.48823089 266.95344457 -243.71558191 260.91775069 -242.99169922 254.87109375 C-242.64369844 252.12541549 -242.22731366 249.40092546 -241.79296875 246.66796875 C-240.08355716 234.01650171 -244.01395852 227.21309746 -251.14892578 216.99707031 C-255.07775644 211.03581264 -257.81864942 204.34676225 -260.6015625 197.79296875 C-261.06046875 196.71660156 -261.519375 195.64023437 -261.9921875 194.53125 C-268.36193415 178.14326256 -272.64276811 159.51068827 -272.83984375 141.91015625 C-272.84959229 141.18175537 -272.85934082 140.45335449 -272.86938477 139.70288086 C-273.0435961 123.3113365 -272.64661698 107.77708296 -268.6015625 91.79296875 C-268.41964355 91.01937012 -268.23772461 90.24577148 -268.05029297 89.44873047 C-262.50316285 65.93663201 -251.80222179 43.57818067 -236.6015625 24.79296875 C-235.54195313 23.42978516 -235.54195313 23.42978516 -234.4609375 22.0390625 C-209.0757788 -10.05763996 -170.41605554 -33.1303517 -129.6015625 -38.20703125 C-81.87368399 -43.4166964 -36.70162362 -31.13576178 0 0 Z " fill="#13ACE9" transform="translate(623.6015625,232.20703125)"/>
<path d="M0 0 C-0.020625 -1.134375 -0.04125 -2.26875 -0.0625 -3.4375 C0 -7 0 -7 1 -8 C3.6662603 -8.08855161 6.30647114 -8.11524673 8.97265625 -8.09765625 C9.77029892 -8.0962413 10.56794159 -8.09482635 11.38975525 -8.09336853 C13.94737435 -8.08775316 16.50490718 -8.07519812 19.0625 -8.0625 C20.79231645 -8.05748698 22.52213426 -8.05292373 24.25195312 -8.04882812 C28.50133553 -8.03777875 32.75065312 -8.02050386 37 -8 C37.09319637 4.98821331 37.16401489 17.97634542 37.20724869 30.96482658 C37.22801187 36.99766838 37.25612088 43.0302793 37.30175781 49.06298828 C37.34562085 54.89856317 37.36922154 60.73391774 37.37950897 66.56964493 C37.3868284 68.78209012 37.4011185 70.99452497 37.42292023 73.20687485 C37.6184269 93.89246141 36.49799145 113.96341371 21.49609375 129.6796875 C9.09539242 141.2071 -7.72989262 145.43071983 -24.36328125 145.203125 C-43.07950806 144.15775036 -60.01656526 137.08149861 -75 126 C-75.99 125.34 -76.98 124.68 -78 124 C-76.60786668 120.35792507 -74.99205189 116.93167328 -73.1796875 113.48046875 C-72.64472656 112.45888672 -72.10976563 111.43730469 -71.55859375 110.38476562 C-70.72521484 108.80211914 -70.72521484 108.80211914 -69.875 107.1875 C-69.31167969 106.11306641 -68.74835937 105.03863281 -68.16796875 103.93164062 C-66.78080182 101.28661895 -65.3914106 98.64279105 -64 96 C-60.03424223 96 -58.47558511 97.49409181 -55.1875 99.6875 C-44.91760585 106.16315494 -35.6462739 109.41160721 -23.5 109.5 C-22.65107178 109.50644531 -21.80214355 109.51289062 -20.92749023 109.51953125 C-14.71576403 109.39123823 -10.2307594 108.29272494 -5.75 103.6875 C-2.36924093 98.49562 -1.75432331 94.14191736 -2 88 C-2.72703125 88.59748047 -2.72703125 88.59748047 -3.46875 89.20703125 C-13.48371671 97.12270686 -23.4029848 98.87740404 -36 98 C-50.1452461 95.60641096 -64.18210905 89.21185265 -72.90234375 77.4296875 C-81.94688447 63.70034239 -86.66292487 49.1633218 -83.3125 32.6015625 C-78.82887363 16.87150665 -70.86469456 5.61565876 -57 -3 C-38.38984438 -12.62091596 -17.15432771 -12.86574578 0 0 Z " fill="#031D2D" transform="translate(624,642)"/>
<path d="M0 0 C-0.36218073 6.29159664 -3.57273581 10.79801736 -6.8125 16 C-7.34681641 16.8765625 -7.88113281 17.753125 -8.43164062 18.65625 C-11.19473074 23.16963705 -14.02647725 27.62251373 -17 32 C-17.88300781 31.46890625 -18.76601563 30.9378125 -19.67578125 30.390625 C-26.89686026 26.11517226 -33.91314824 22.42605553 -42 20 C-42.63808594 19.80792969 -43.27617187 19.61585938 -43.93359375 19.41796875 C-46.62262229 18.87406317 -49.19493015 18.79150169 -51.9375 18.75 C-52.95714844 18.72421875 -53.97679687 18.6984375 -55.02734375 18.671875 C-58.42581503 19.04700192 -60.2651735 19.9843497 -63 22 C-64.53214888 25.06429776 -64.22938548 27.6165642 -64 31 C-62.32192093 35.5098375 -59.67837145 36.95774701 -55.44335938 39.00317383 C-50.85872946 40.8735819 -46.06431685 41.8914947 -41.25 43 C-39.10603312 43.51778823 -36.96279083 44.03858661 -34.8203125 44.5625 C-33.80743164 44.81 -32.79455078 45.0575 -31.75097656 45.3125 C-19.69576282 48.32523357 -7.81798792 52.8147333 0 63 C7.39379529 75.59825899 7.72511819 89.61811401 5.3515625 103.90234375 C1.52421227 116.34941009 -7.43074487 126.71857017 -18.875 132.8125 C-28.71537425 137.21051629 -37.94622057 138.55865145 -48.6875 138.5 C-50.54024536 138.49033203 -50.54024536 138.49033203 -52.43041992 138.48046875 C-73.24730046 138.06492395 -92.46835809 128.94551779 -107 114 C-105.57091424 110.02079009 -103.66433497 106.76373523 -101.3046875 103.26171875 C-100.23154297 101.66166992 -100.23154297 101.66166992 -99.13671875 100.02929688 C-98.38291335 98.91529633 -97.62900583 97.80136489 -96.875 96.6875 C-96.11285478 95.55432318 -95.35113164 94.42086235 -94.58984375 93.28710938 C-92.73069414 90.5219185 -90.86729186 87.75969621 -89 85 C-85.41418355 86.36679764 -82.90172866 87.73365718 -80 90.25 C-68.76515728 99.23412298 -55.29137685 103.55905929 -41 102 C-37.75946438 100.74177005 -35.59202605 99.18405209 -34 96 C-33.29714098 90.49518358 -33.29714098 90.49518358 -35.7265625 85.8671875 C-41.71263575 80.95079057 -49.96993231 79.71697301 -57.375 78.0625 C-73.63421271 74.39326642 -88.74577539 68.64524697 -98 54 C-104.19633366 41.76944607 -105.35526891 25.60328263 -101.1015625 12.484375 C-95.29071482 -0.62094104 -84.61553726 -9.87621011 -71.42578125 -15 C-46.87431532 -23.0168052 -19.87483444 -15.5120659 0 0 Z " fill="#021D2D" transform="translate(352,612)"/>
<path d="M0 0 C4.69730434 4.66150171 6.60112451 9.53172683 8.8125 15.6875 C16.19778394 34.9797058 30.62323374 47.96019296 46.73974609 60.3359375 C48.57079525 61.74736107 50.37921793 63.18457923 52.1875 64.625 C53.05375 65.27202881 53.05375 65.27202881 53.9375 65.93212891 C56.8680907 68.29496222 57.9389166 69.56837764 58.47265625 73.33984375 C57.96378152 77.28046876 57.25214384 81.0972517 56.25 84.9375 C55.97603394 85.99300049 55.97603394 85.99300049 55.6965332 87.06982422 C53.37238383 95.69266832 50.74544746 102.08825283 43 107 C39.72971694 108.53727175 36.41795691 109.83087993 33 111 C33.79664063 111.34611328 33.79664063 111.34611328 34.609375 111.69921875 C39.12562063 113.78427376 42.44866596 115.53516543 45 120 C45.77389941 124.44992163 44.72229061 127.55836172 42.33984375 131.390625 C39.21024587 135.14979213 34.74927582 137.10102993 30 138 C13.875452 139.08051095 1.81762264 134.62751317 -12 127 C-12.845625 126.53851563 -13.69125 126.07703125 -14.5625 125.6015625 C-33.99041894 113.81624403 -47.35229379 91.79108022 -53.2734375 70.44921875 C-57.15327067 52.03044085 -56.58047329 32.04305623 -46.74609375 15.5625 C-40.22562099 5.99330508 -32.57018122 -1.26670492 -20.87109375 -3.6328125 C-13.14868957 -4.6204397 -6.78526883 -4.13978881 0 0 Z " fill="#FC5E44" transform="translate(579,289)"/>
<path d="M0 0 C7.11875294 6.67776825 11.56113474 15.63462176 12.42982864 25.39562988 C12.49333467 27.50600859 12.49788506 29.60752827 12.47705078 31.71875 C12.47734283 32.50995743 12.47763489 33.30116486 12.47793579 34.11634827 C12.4765548 36.70268144 12.46105231 39.28871785 12.4453125 41.875 C12.44157798 43.67960452 12.43873308 45.48421108 12.43673706 47.28881836 C12.42913514 52.01688324 12.40951651 56.74482342 12.3873291 61.47283936 C12.3631802 67.15727665 12.35407329 72.84175585 12.34242249 78.52622986 C12.32308988 87.14257306 12.28474337 95.75864313 12.25 104.375 C0.04 104.375 -12.17 104.375 -24.75 104.375 C-25.245 100.415 -25.245 100.415 -25.75 96.375 C-26.28367187 96.77332031 -26.81734375 97.17164063 -27.3671875 97.58203125 C-38.72413467 105.65764593 -50.12345419 106.64119667 -63.75 105.375 C-75.57065188 103.1855077 -85.89411915 96.23944559 -92.75 86.375 C-97.81706719 77.15231977 -99.18382439 67.24888311 -97.2890625 56.84375 C-94.06006223 46.05509028 -87.36029871 38.98507285 -77.75 33.375 C-65.50608667 26.84068356 -50.36587948 26.25891598 -36.93359375 29.21484375 C-33.12879415 30.55741618 -30.10570816 32.13786123 -26.75 34.375 C-26.99760891 30.16564851 -27.33102261 27.89872173 -30 24.5625 C-37.11378542 18.90380706 -45.98546956 18.73071259 -54.75 19.375 C-60.96996678 20.46721766 -66.9287606 21.90473236 -72.75 24.375 C-76.24049914 19.57942485 -78.4084495 14.72158105 -80.5 9.1875 C-80.81582031 8.38119141 -81.13164063 7.57488281 -81.45703125 6.74414062 C-83.75 0.77348823 -83.75 0.77348823 -83.75 -2.625 C-58.3465364 -15.90701396 -23.66553318 -19.26264328 0 0 Z " fill="#031E2D" transform="translate(765.75,644.625)"/>
<path d="M0 0 C8.97877104 7.04488189 13.96148843 16.92644901 16 28 C16.5190673 34.09986403 16.35078486 40.24011388 16.29296875 46.35546875 C16.28736251 48.11094294 16.28309728 49.86642187 16.28010559 51.62190247 C16.26873766 56.20697347 16.23934134 60.7917522 16.20599365 65.37670898 C16.16967396 70.89682222 16.15609321 76.41703405 16.13863373 81.93723297 C16.10969795 90.29169094 16.0521552 98.64550961 16 107 C3.13 107 -9.74 107 -23 107 C-23.02578125 101.88371094 -23.0515625 96.76742187 -23.078125 91.49609375 C-23.10330408 88.2466953 -23.12964497 84.99738896 -23.16015625 81.74804688 C-23.20843035 76.59529317 -23.25249773 71.44275277 -23.27099609 66.28979492 C-23.28618708 62.13334193 -23.32067525 57.97744853 -23.36830902 53.82124519 C-23.38309779 52.23895201 -23.39103958 50.65657891 -23.39188385 49.07421684 C-23.39426298 46.85022844 -23.42141452 44.62777476 -23.45410156 42.40405273 C-23.46298401 41.14052475 -23.47186646 39.87699677 -23.48101807 38.57518005 C-24.1315508 34.09376846 -25.47301784 31.74244558 -28 28 C-30.49552137 26.10057876 -30.49552137 26.10057876 -33 25 C-33.66 24.67 -34.32 24.34 -35 24 C-37.24655587 23.85022961 -39.49863768 23.77849826 -41.75 23.75 C-43.56757813 23.71132813 -43.56757813 23.71132813 -45.421875 23.671875 C-50.02751943 24.09422667 -53.0354778 25.01437638 -56.34812927 28.36260986 C-61.50092476 35.28516033 -60.73086109 43.30945398 -60.70703125 51.53125 C-60.7201618 53.13409289 -60.73547018 54.73691927 -60.75285339 56.33972168 C-60.79255822 60.5351644 -60.80288438 64.73017284 -60.80688477 68.92578125 C-60.81789252 73.97212015 -60.86575709 79.0182306 -60.90737152 84.06439209 C-60.96633088 91.70978847 -60.97876108 99.35398708 -61 107 C-73.54 107 -86.08 107 -99 107 C-99 69.05 -99 31.1 -99 -8 C-86.79 -8 -74.58 -8 -62 -8 C-61.505 -1.07 -61.505 -1.07 -61 6 C-59.659375 4.5975 -58.31875 3.195 -56.9375 1.75 C-41.2470926 -13.86685862 -17.61500477 -11.81766143 0 0 Z " fill="#021C2C" transform="translate(517,642)"/>
<path d="M0 0 C12.54 0 25.08 0 38 0 C38 37.95 38 75.9 38 115 C25.46 115 12.92 115 0 115 C0 77.05 0 39.1 0 0 Z " fill="#011B2C" transform="translate(368,634)"/>
<path d="M0 0 C4.69730434 4.66150171 6.60112451 9.53172683 8.8125 15.6875 C16.19778394 34.9797058 30.62323374 47.96019296 46.73974609 60.3359375 C48.57079525 61.74736107 50.37921793 63.18457923 52.1875 64.625 C53.05375 65.27202881 53.05375 65.27202881 53.9375 65.93212891 C56.85482951 68.28427019 57.93718722 69.5694285 58.484375 73.3203125 C57.94678327 77.40427547 57.13346001 81.27744246 56.0625 85.25 C55.88009766 85.95640625 55.69769531 86.6628125 55.50976562 87.390625 C54.75373847 90.29376929 53.94887191 93.15338427 53 96 C46.88251314 95.49709849 42.06280337 94.11552491 36.5 91.5625 C35.72390381 91.21050537 34.94780762 90.85851074 34.14819336 90.49584961 C9.28800253 78.89577479 -12.09525453 59.98563158 -27 37 C-27.51820313 36.278125 -28.03640625 35.55625 -28.5703125 34.8125 C-33.23340727 28.11104644 -36.59132003 19.36124326 -36 11.125 C-35.1705315 6.701168 -33.73242047 3.59529009 -31 0 C-21.25315725 -5.41491264 -9.61761726 -5.86784479 0 0 Z " fill="#FCD33C" transform="translate(579,289)"/>
<path d="M0 0 C0 4.00479798 -1.57461672 5.79360801 -3.6875 9.1875 C-17.99033815 33.16578749 -18.24198862 64.30911355 -11.59423828 90.75878906 C-6.20156668 111.09762444 3.31937191 130.66151854 14.16796875 148.640625 C27 169.98597679 27 169.98597679 27 179 C15.8275062 178.86405151 5.13938255 177.91931799 -5.8125 175.625 C-6.81925781 175.41593018 -7.82601563 175.20686035 -8.86328125 174.99145508 C-14.21968116 173.81209317 -19.04748479 172.36228759 -24 170 C-23.57847656 169.35933594 -23.15695312 168.71867188 -22.72265625 168.05859375 C-22.17480469 167.19363281 -21.62695312 166.32867188 -21.0625 165.4375 C-20.51722656 164.59058594 -19.97195313 163.74367188 -19.41015625 162.87109375 C-12.95719981 149.73280294 -17.33095733 129.89273996 -19.19921875 116.07421875 C-24.26902204 78.46866715 -25.78870962 33.66935477 -1.625 1.875 C-1.08875 1.25625 -0.5525 0.6375 0 0 Z " fill="#0546D8" transform="translate(489,348)"/>
<path d="M0 0 C5.28 0 10.56 0 16 0 C16 6.6 16 13.2 16 20 C22.93 20 29.86 20 37 20 C37 13.4 37 6.8 37 0 C41.95 0 46.9 0 52 0 C52 17.82 52 35.64 52 54 C47.05 54 42.1 54 37 54 C37 47.4 37 40.8 37 34 C30.07 34 23.14 34 16 34 C16 40.6 16 47.2 16 54 C10.72 54 5.44 54 0 54 C0 36.18 0 18.36 0 0 Z " fill="#FC5D40" transform="translate(458,797)"/>
<path d="M0 0 C2.62697064 -0.22137393 5.00893964 -0.28162025 7.625 -0.1875 C8.33140625 -0.17396484 9.0378125 -0.16042969 9.765625 -0.14648438 C11.51074128 -0.1111104 13.25546608 -0.05730221 15 0 C20.11295434 11.18537665 25.07991338 22.42435476 29.875 33.75 C30.3388208 34.8436084 30.8026416 35.9372168 31.28051758 37.06396484 C33.64374857 42.6692466 35.91555007 48.28501806 38 54 C32.39 54 26.78 54 21 54 C19.68 50.7 18.36 47.4 17 44 C10.73 44 4.46 44 -2 44 C-3.98 48.95 -3.98 48.95 -6 54 C-11.61 54 -17.22 54 -23 54 C-17.79016555 40.82284822 -12.5036859 27.68256612 -7 14.625 C-6.53166748 13.50883301 -6.06333496 12.39266602 -5.58081055 11.24267578 C-4.92205933 9.68782471 -4.92205933 9.68782471 -4.25 8.1015625 C-3.86328125 7.18713379 -3.4765625 6.27270508 -3.078125 5.33056641 C-2 3 -2 3 0 0 Z " fill="#FA5F45" transform="translate(544,797)"/>
<path d="M0 0 C4.42176218 4.66741563 7.51011008 10.42620213 7.75 16.9375 C7.22884066 24.51435507 5.10346709 30.6843481 -0.59765625 35.8671875 C-6.85980308 40.2540998 -14.18995621 42.36648115 -21.75 41.375 C-24.61896628 40.32590039 -27.15341027 38.97548419 -29.75 37.375 C-30.636875 36.83875 -31.52375 36.3025 -32.4375 35.75 C-37.5701045 30.47867646 -40.05201206 24.59948117 -40.3125 17.25 C-39.95726009 9.95823333 -37.82736303 5.04852169 -32.5 0.0625 C-21.65679811 -8.40442573 -11.20818657 -6.62301934 0 0 Z " fill="#031D2B" transform="translate(402.75,582.625)"/>
<path d="M0 0 C2.8125 2.375 2.8125 2.375 5 5 C5.763125 5.825 6.52625 6.65 7.3125 7.5 C10.25566387 13.60433987 10.23658428 21.42837473 8 27.875 C4.56772389 33.23793142 0.45377544 36.97387573 -5.4375 39.4375 C-13.38685641 40.69266154 -19.15048537 40.58136396 -26 36 C-31.11111981 31.8181747 -34.43743762 26.89815951 -35.38671875 20.3203125 C-35.70620646 12.36617015 -33.65253519 7.31566898 -28.75 1.1875 C-19.85115308 -5.89112823 -9.5770094 -5.73127073 0 0 Z " fill="#FBFCFC" transform="translate(614,668)"/>
<path d="M0 0 C1.32 1.32 2.64 2.64 4 4 C1.36 7.63 -1.28 11.26 -4 15 C-5.299375 14.34 -6.59875 13.68 -7.9375 13 C-12.71377998 10.89723523 -16.82572499 10.02739191 -22 11 C-25.15689734 12.60714774 -27.19415756 13.97438234 -29.375 16.75 C-30.80762043 21.90743355 -30.70282968 25.62037137 -28.3125 30.3125 C-25.33316935 33.77496535 -23.33243297 35.67869546 -18.703125 36.31640625 C-12.58159126 36.60393283 -9.00804679 35.48385863 -4 32 C-2.6578508 33.59679804 -1.32652885 35.20270197 0 36.8125 C0.7425 37.70582031 1.485 38.59914063 2.25 39.51953125 C4 42 4 42 4 45 C2.44148245 45.82011312 0.87798284 46.63076213 -0.6875 47.4375 C-1.99267578 48.11619141 -1.99267578 48.11619141 -3.32421875 48.80859375 C-11.17324039 52.3034136 -21.25812439 52.33025273 -29.3125 49.5 C-36.062872 46.41066037 -41.82080911 40.73240423 -45 34 C-47.40917682 26.27342578 -47.08063427 17.17941465 -43.32421875 9.99609375 C-38.65802281 2.96238836 -32.61701472 -1.22620588 -24.625 -3.75 C-15.75653177 -4.59461602 -8.18687884 -3.88936766 0 0 Z " fill="#F85F45" transform="translate(439,800)"/>
<path d="M0 0 C14.85 0 29.7 0 45 0 C45 4.62 45 9.24 45 14 C40.05 14 35.1 14 30 14 C30 26.87 30 39.74 30 53 C24.72 53 19.44 53 14 53 C14 40.13 14 27.26 14 14 C9.38 14 4.76 14 0 14 C0 9.38 0 4.76 0 0 Z " fill="#F96248" transform="translate(585,798)"/>
<path d="M0 0 C2.88000192 1.75304465 4.40752756 2.72873321 5.875 5.75 C6.50507014 8.90035069 6.44449437 10.80084272 4.7734375 13.5859375 C0.87234034 18.53010877 -3.14979651 21.17096054 -9.51171875 22.09765625 C-15.9430785 22.48176503 -20.26549386 20.98172305 -25.125 16.75 C-27.58706895 13.84028215 -28.125 12.55303354 -28.125 8.75 C-26.85789132 4.94867395 -25.21117938 3.27505586 -22.125 0.75 C-15.61123806 -2.46211285 -6.78750084 -2.65408687 0 0 Z " fill="#F9FBFB" transform="translate(734.125,699.25)"/>
<path d="M0 0 C1 3 1 3 -0.0390625 5.0859375 C-3.08772422 9.48622264 -6.20938184 13.20938184 -10 17 C-13.48605647 21.68127583 -16.42016361 26.55534379 -18.92578125 31.8203125 C-20.71601829 35.4528662 -22.74067473 38.95815774 -24.73046875 42.484375 C-25.86370702 44.72993022 -26.45466188 46.57032392 -27 49 C-27.58347497 50.48745028 -28.18969203 51.96608516 -28.8125 53.4375 C-30.95036401 58.66512368 -32.58139405 63.99304662 -34.16796875 69.41015625 C-35 72 -35 72 -36 73 C-36.20699563 74.49496842 -36.36679259 75.9966592 -36.5 77.5 C-36.88888889 81.88888889 -36.88888889 81.88888889 -38 83 C-38.20699563 84.49496842 -38.36679259 85.9966592 -38.5 87.5 C-38.88888889 91.88888889 -38.88888889 91.88888889 -40 93 C-40.10307765 94.3440912 -40.13848767 95.69348305 -40.14526367 97.04150391 C-40.15164352 97.89974762 -40.15802338 98.75799133 -40.16459656 99.64224243 C-40.16570938 100.57756805 -40.1668222 101.51289368 -40.16796875 102.4765625 C-40.17129715 103.43517181 -40.17462555 104.39378113 -40.17805481 105.38143921 C-40.18313074 107.41753661 -40.18546293 109.45364237 -40.18530273 111.48974609 C-40.18747615 114.59096258 -40.20558844 117.6918159 -40.22460938 120.79296875 C-40.22754585 122.77083212 -40.22952895 124.74869718 -40.23046875 126.7265625 C-40.23765427 127.64974274 -40.24483978 128.57292297 -40.25224304 129.52407837 C-40.23384964 134.76809391 -39.64243984 139.02284869 -38 144 C-37.8046875 146.65234375 -37.8046875 146.65234375 -37.875 148.9375 C-37.89304687 149.70964844 -37.91109375 150.48179687 -37.9296875 151.27734375 C-37.96449219 152.13005859 -37.96449219 152.13005859 -38 153 C-37.34 153.33 -36.68 153.66 -36 154 C-35.62761282 156.32741989 -35.30163134 158.66235715 -35 161 C-32.20938319 171.3598562 -29.02598239 181.50647771 -24 191 C-24 191.66 -24 192.32 -24 193 C-23.34 193.33 -22.68 193.66 -22 194 C-21.32438252 195.6630584 -20.66066719 197.33094605 -20 199 C-17.63080354 203.5831697 -15.16168039 207.91545074 -12 212 C-7.71544992 217.87142049 -8.87787237 223.62377612 -9.71484375 230.44921875 C-10.16631942 234.48776138 -10.43216311 238.54059251 -10.71875 242.59375 C-11 245 -11 245 -12 246 C-12.23363881 247.84891946 -12.41303635 249.70488031 -12.5625 251.5625 C-12.64628906 252.57441406 -12.73007812 253.58632813 -12.81640625 254.62890625 C-12.90728516 255.80259766 -12.90728516 255.80259766 -13 257 C-11.865625 256.401875 -10.73125 255.80375 -9.5625 255.1875 C-5.17747943 252.98322311 -0.68609497 251.43186235 4 250 C4 249.34 4 248.68 4 248 C4.721875 247.896875 5.44375 247.79375 6.1875 247.6875 C9.08953219 247.13181279 9.08953219 247.13181279 11.625 245.375 C12.40875 244.92125 13.1925 244.4675 14 244 C14.99 244.33 15.98 244.66 17 245 C17 244.34 17 243.68 17 243 C17.99 243 18.98 243 20 243 C20 242.34 20 241.68 20 241 C21.26691507 240.32591692 22.53870749 239.66099503 23.8125 239 C24.52019531 238.62875 25.22789062 238.2575 25.95703125 237.875 C28 237 28 237 31 237 C31 236.01 31 235.02 31 234 C30.34 234 29.68 234 29 234 C29 233.34 29 232.68 29 232 C28.34 232 27.68 232 27 232 C27.33 230.68 27.66 229.36 28 228 C28.86657116 229.09445838 29.71792724 230.20097781 30.5625 231.3125 C31.03816406 231.92738281 31.51382813 232.54226563 32.00390625 233.17578125 C32.33261719 233.77777344 32.66132813 234.37976563 33 235 C31.22277871 240.33166386 25.20146307 242.30225125 20.41210938 244.80273438 C-8.1908646 259 -8.1908646 259 -16 259 C-15.91435791 258.40276123 -15.82871582 257.80552246 -15.74047852 257.19018555 C-14.88666839 251.16047582 -14.11401941 245.12478194 -13.39013672 239.078125 C-13.04213594 236.33244674 -12.62575116 233.60795671 -12.19140625 230.875 C-10.48199466 218.22353296 -14.41239602 211.42012871 -21.54736328 201.20410156 C-25.47619394 195.24284389 -28.21708692 188.5537935 -31 182 C-31.45890625 180.92363281 -31.9178125 179.84726562 -32.390625 178.73828125 C-38.76037165 162.35029381 -43.04120561 143.71771952 -43.23828125 126.1171875 C-43.25290405 125.02458618 -43.25290405 125.02458618 -43.26782227 123.90991211 C-43.4420336 107.51836775 -43.04505448 91.98411421 -39 76 C-38.81808105 75.22640137 -38.63616211 74.45280273 -38.44873047 73.65576172 C-32.88981168 50.09369574 -22.15244726 27.87066771 -7 9 C-5.64410162 7.25134139 -4.28978547 5.50145407 -2.9375 3.75 C-1.95943328 2.49913916 -0.98072934 1.24877433 0 0 Z " fill="#0A42BD" transform="translate(394,248)"/>
<path d="M0 0 C0.33 0 0.66 0 1 0 C1.14695312 1.12792969 1.29390625 2.25585938 1.4453125 3.41796875 C6.42985662 39.25352822 22.4431587 70.67099483 42.890625 100.2109375 C43.32415283 100.84765381 43.75768066 101.48437012 44.2043457 102.14038086 C45.34535668 103.8032163 46.51335845 105.44744395 47.68359375 107.08984375 C49 110 49 110 48.41015625 113.19140625 C47.14869437 115.70384695 46.15286365 117.23856611 44 119 C43.63390625 118.17242187 43.2678125 117.34484375 42.890625 116.4921875 C39.21158704 108.38078476 35.20658959 100.50532007 30.9375 92.6875 C30.4434668 91.78177246 29.94943359 90.87604492 29.44042969 89.94287109 C27.01075432 85.52813005 24.51465944 81.17639009 21.8828125 76.87890625 C19.21455514 72.46536818 16.98345568 67.98018184 14.9375 63.25 C14.59807373 62.47197021 14.25864746 61.69394043 13.90893555 60.89233398 C6.72293095 44.22073493 -0.29403381 25.50522224 -0.0625 7.125 C-0.05798828 6.43664062 -0.05347656 5.74828125 -0.04882812 5.0390625 C-0.03716336 3.35933665 -0.01923271 1.67965625 0 0 Z " fill="#1871CB" transform="translate(510,384)"/>
<path d="M0 0 C5.33852794 -0.0494731 10.67692214 -0.08575425 16.015625 -0.10986328 C17.83140386 -0.11991491 19.64716656 -0.13355828 21.46289062 -0.15087891 C24.07425935 -0.17516406 26.68541387 -0.18649148 29.296875 -0.1953125 C30.10743347 -0.20563507 30.91799194 -0.21595764 31.75311279 -0.22659302 C35.72293915 -0.22738158 38.58728234 -0.07306333 42 2 C44.32495277 2.38749213 46.65851268 2.72982839 49 3 C49 3.66 49 4.32 49 5 C50.010625 4.9175 51.02125 4.835 52.0625 4.75 C56.90275368 5.05731769 58.99368267 6.3836295 63 9 C63 9.66 63 10.32 63 11 C63.99 11 64.98 11 66 11 C66 11.66 66 12.32 66 13 C66.99 12.67 67.98 12.34 69 12 C69 12.99 69 13.98 69 15 C70.65 15.66 72.3 16.32 74 17 C74 17.66 74 18.32 74 19 C74.66 19 75.32 19 76 19 C77.4375 20.71484375 77.4375 20.71484375 79 22.9375 C81.04816804 25.98632637 81.04816804 25.98632637 84 28 C84.73075648 30.3140622 85.40138258 32.64828869 86 35 C86.70125 35.103125 87.4025 35.20625 88.125 35.3125 C91.39137647 36.09359003 94.0471852 37.42058743 97 39 C97 39.66 97 40.32 97 41 C98.65 41.33 100.3 41.66 102 42 C102 42.66 102 43.32 102 44 C103.97290587 46.34869747 105.00306862 47.00102287 108 48 C108.76261307 49.65232832 109.52223201 51.3098147 110.15625 53.015625 C110.99086162 55.12225546 110.99086162 55.12225546 112.4765625 57.359375 C114.11628413 60.20155916 114.96775689 62.85274956 115.875 66 C117.47605975 71.00639068 118.83030284 73.81786269 123 77 C123.66 77.33 124.32 77.66 125 78 C125 78.99 125 79.98 125 81 C125.99 81.33 126.98 81.66 128 82 C129.68762851 83.6454378 131.3540349 85.31288577 133 87 C133.99 87.66 134.98 88.32 136 89 C136 89.66 136 90.32 136 91 C136.556875 91.061875 137.11375 91.12375 137.6875 91.1875 C140.99068042 92.3480769 142.71894733 94.40213446 145 97 C145 97.66 145 98.32 145 99 C145.7425 99.0825 146.485 99.165 147.25 99.25 C150.61610713 100.16802922 151.69891191 101.4112759 154 104 C154.78375 104.7425 155.5675 105.485 156.375 106.25 C166.14251497 116.48263473 166.14251497 116.48263473 166.09765625 123.5703125 C166.09443359 124.46621094 166.09121094 125.36210937 166.08789062 126.28515625 C166.07951172 127.22230469 166.07113281 128.15945313 166.0625 129.125 C166.05798828 130.06988281 166.05347656 131.01476562 166.04882812 131.98828125 C166.03702357 134.32558387 166.02055759 136.66276061 166 139 C165.34 139.33 164.68 139.66 164 140 C164.04640625 138.7934375 164.0928125 137.586875 164.140625 136.34375 C164.17817287 134.72919164 164.21456977 133.11460622 164.25 131.5 C164.30027344 130.31277344 164.30027344 130.31277344 164.3515625 129.1015625 C164.46893197 121.94202479 162.49386188 117.0663827 157.9921875 111.53125 C153.46345666 107.18634218 148.81533375 103.15734354 143.87109375 99.29296875 C138.33602855 94.87244729 133.00640756 90.21507929 127.7109375 85.51171875 C126.23810182 84.21037764 124.74582432 82.93110028 123.25 81.65625 C116.7220457 75.74580489 114.0669246 69.0794295 111 61 C106.96206562 50.98928769 100.34741724 43.92770933 90.8125 39 C85.11277517 36.04814251 82.23899914 33.1841131 79.33203125 27.44921875 C72.9792793 15.76835226 59.72284991 9.63417331 47.5546875 5.99609375 C31.77395513 1.57402039 17.07358114 1.6718821 1 4 C-1.66544778 4.34403936 -4.33244793 4.67251035 -7 5 C-6.67 4.34 -6.34 3.68 -6 3 C-4.33333333 2.66666667 -2.66666667 2.33333333 -1 2 C-0.67 1.34 -0.34 0.68 0 0 Z " fill="#34D0D9" transform="translate(491,232)"/>
<path d="M0 0 C4.33057859 1.49748979 7.8735296 3.77686409 11.5625 6.4375 C12.17456299 6.87779541 12.78662598 7.31809082 13.41723633 7.77172852 C19.72503675 12.39875428 25.3802161 17.57188677 31 23 C31.91394531 23.85078125 32.82789063 24.7015625 33.76953125 25.578125 C60.40427171 51.03163949 76.3550732 86.47823615 81.63037109 122.52490234 C81.89861676 124.32112066 82.205226 126.1117423 82.53491211 127.89770508 C86.48388555 154.23870538 81.61953618 182.11150742 73 207 C72.67 207 72.34 207 72 207 C71.42961284 199.96522502 73.85081295 193.3198737 76.125 186.75 C77.15017083 183.52803454 77.5410684 180.34364455 78 177 C78.33 176.67 78.66 176.34 79 176 C79.07296482 173.28206055 78.99626869 170.57742685 78.9375 167.859375 C78.99758914 165.11029664 79.37594876 162.67171936 80 160 C80.66 160 81.32 160 82 160 C81.67 152.41 81.34 144.82 81 137 C80.34 137 79.68 137 79 137 C79.02320313 135.81664062 79.04640625 134.63328125 79.0703125 133.4140625 C79.37567247 121.06049269 79.37567247 121.06049269 77 109 C76.67 108.67 76.34 108.34 76 108 C75.60224617 106.40608137 75.25604817 104.79911776 74.9375 103.1875 C74.67259766 101.87845703 74.67259766 101.87845703 74.40234375 100.54296875 C74 98 74 98 74 94 C72.515 93.505 72.515 93.505 71 93 C70.67 89.7 70.34 86.4 70 83 C68.515 82.505 68.515 82.505 67 82 C66.814375 80.88625 66.814375 80.88625 66.625 79.75 C66.12244458 77.03427622 66.12244458 77.03427622 64.9375 74.875 C64 73 64 73 64 70 C63.34 70 62.68 70 62 70 C59.08733624 63.41484716 59.08733624 63.41484716 58.5 60.625 C58.335 60.08875 58.17 59.5525 58 59 C57.01 58.67 56.02 58.34 55 58 C54.2949947 56.34918512 53.63519993 54.67891134 53 53 C51.78142429 51.15196135 50.50638182 49.34034261 49.1875 47.5625 C48.47980469 46.60601562 47.77210938 45.64953125 47.04296875 44.6640625 C45.4103794 42.53514102 43.74795617 40.47093898 42 38.4375 C40 36 40 36 40 34 C39.34 34 38.68 34 38 34 C38 33.34 38 32.68 38 32 C37.34 32 36.68 32 36 32 C36 31.34 36 30.68 36 30 C35.34 30 34.68 30 34 30 C34 29.34 34 28.68 34 28 C33.34 28 32.68 28 32 28 C30.37890625 26.3203125 30.37890625 26.3203125 28.5625 24.125 C26.41599116 21.53806278 24.83223438 19.88815626 22 18 C22 17.34 22 16.68 22 16 C21.4225 15.9175 20.845 15.835 20.25 15.75 C17.38264421 14.79421474 16.08199155 13.14915257 14 11 C13.01 10.67 12.02 10.34 11 10 C10 9 9 8 8 7 C7.01 6.67 6.02 6.34 5 6 C5 5.34 5 4.68 5 4 C4.360625 3.71125 3.72125 3.4225 3.0625 3.125 C1 2 1 2 0 0 Z " fill="#49EAE6" transform="translate(601,217)"/>
<path d="M0 0 C3.47634154 3.61370458 8.5625 13.11565766 8.5625 18.375 C-3.55224824 17.72917702 -11.00130114 15.47992194 -19.4375 6.375 C-20.77453794 4.36521195 -21.58581807 2.64615182 -22.4375 0.375 C-15.14316365 -2.36037613 -7.20627316 -3.40660186 0 0 Z " fill="#051B2B" transform="translate(581.4375,312.625)"/>
<path d="M0 0 C0.33 0 0.66 0 1 0 C1 17.49 1 34.98 1 53 C5.62 53 10.24 53 15 53 C15 46.4 15 39.8 15 33 C18.81254623 32.97317208 22.62490612 32.95324523 26.4375 32.9375 C27.52611328 32.92912109 28.61472656 32.92074219 29.73632812 32.91210938 C30.77080078 32.90888672 31.80527344 32.90566406 32.87109375 32.90234375 C33.82943115 32.89710693 34.78776855 32.89187012 35.77514648 32.88647461 C38 33 38 33 39 34 C39.08631874 35.34267413 39.10706473 36.68974322 39.09765625 38.03515625 C39.09443359 38.84404297 39.09121094 39.65292969 39.08789062 40.48632812 C39.07532227 41.7615332 39.07532227 41.7615332 39.0625 43.0625 C39.05798828 43.91650391 39.05347656 44.77050781 39.04882812 45.65039062 C39.03700373 47.76695663 39.01906769 49.88348685 39 52 C42.96 52 46.92 52 51 52 C51 35.5 51 19 51 2 C47.04 2 43.08 2 39 2 C39.01160156 3.28777344 39.02320313 4.57554687 39.03515625 5.90234375 C39.0445327 7.58072772 39.05363305 9.25911326 39.0625 10.9375 C39.07087891 11.78763672 39.07925781 12.63777344 39.08789062 13.51367188 C39.09111328 14.32255859 39.09433594 15.13144531 39.09765625 15.96484375 C39.10289307 16.7137085 39.10812988 17.46257324 39.11352539 18.23413086 C39 20 39 20 38 21 C36.36527118 21.08700342 34.72685945 21.10701063 33.08984375 21.09765625 C32.10048828 21.09443359 31.11113281 21.09121094 30.09179688 21.08789062 C29.05087891 21.07951172 28.00996094 21.07113281 26.9375 21.0625 C25.89271484 21.05798828 24.84792969 21.05347656 23.77148438 21.04882812 C21.1809334 21.03699913 18.59049441 21.02051689 16 21 C16 20.67 16 20.34 16 20 C22.93 20 29.86 20 37 20 C37 13.4 37 6.8 37 0 C41.95 0 46.9 0 52 0 C52 17.82 52 35.64 52 54 C47.05 54 42.1 54 37 54 C37 47.4 37 40.8 37 34 C30.07 34 23.14 34 16 34 C16 40.6 16 47.2 16 54 C10.72 54 5.44 54 0 54 C0 36.18 0 18.36 0 0 Z " fill="#E26E59" transform="translate(458,797)"/>
<path d="M0 0 C0.99 0.33 1.98 0.66 3 1 C-7 11 -7 11 -9.6015625 13.58984375 C-33.80181857 37.90834211 -47.46050626 71.0583386 -48.25 105.375 C-47.88233167 120.58727735 -45.31662416 133.49035999 -38.63671875 147.22265625 C-38.32154297 148.10244141 -38.32154297 148.10244141 -38 149 C-38.495 149.99 -38.495 149.99 -39 151 C-44.86095215 142.40073414 -48.17511094 134.39360214 -49 124 C-49.33 123.67 -49.66 123.34 -50 123 C-50.22165104 118.65936479 -50.18578388 114.31253892 -50.18530273 109.96679688 C-50.18744988 107.8005692 -50.20548181 105.63488467 -50.22460938 103.46875 C-50.2593966 94.85488837 -49.89863455 86.45045845 -48 78 C-47.505 77.505 -47.505 77.505 -47 77 C-46.87625 75.96875 -46.7525 74.9375 -46.625 73.875 C-46 70 -46 70 -44.4375 66.375 C-43.08305793 63.19500559 -42.69235532 61.38409152 -43 58 C-41.515 57.505 -41.515 57.505 -40 57 C-39.9175 56.319375 -39.835 55.63875 -39.75 54.9375 C-38.96905937 51.87881588 -37.67582845 49.53969688 -36.0546875 46.84765625 C-34.43064761 44.00257895 -33.23707179 41.03082589 -32 38 C-31.34 38 -30.68 38 -30 38 C-29.896875 37.46375 -29.79375 36.9275 -29.6875 36.375 C-28.81907303 33.37497956 -27.44379704 30.7620465 -26 28 C-25.34 28 -24.68 28 -24 28 C-24 27.34 -24 26.68 -24 26 C-23.34 26 -22.68 26 -22 26 C-22 25.01 -22 24.02 -22 23 C-21.34 23 -20.68 23 -20 23 C-19.34 21.35 -18.68 19.7 -18 18 C-17.34 18 -16.68 18 -16 18 C-15.67 16.68 -15.34 15.36 -15 14 C-14.01 14 -13.02 14 -12 14 C-12 13.01 -12 12.02 -12 11 C-10.68 10.67 -9.36 10.34 -8 10 C-8 9.34 -8 8.68 -8 8 C-7.34 8 -6.68 8 -6 8 C-5.34 6.68 -4.68 5.36 -4 4 C-3.34 4 -2.68 4 -2 4 C-2 3.34 -2 2.68 -2 2 C-1.34 2 -0.68 2 0 2 C0 1.34 0 0.68 0 0 Z " fill="#1688CB" transform="translate(459,325)"/>
<path d="M0 0 C1 3 1 3 -0.0390625 5.0859375 C-3.08772422 9.48622264 -6.20938184 13.20938184 -10 17 C-13.48605647 21.68127583 -16.42016361 26.55534379 -18.92578125 31.8203125 C-20.71601829 35.4528662 -22.74067473 38.95815774 -24.73046875 42.484375 C-25.86370702 44.72993022 -26.45466188 46.57032392 -27 49 C-27.58347497 50.48745028 -28.18969203 51.96608516 -28.8125 53.4375 C-30.95036401 58.66512368 -32.58139405 63.99304662 -34.16796875 69.41015625 C-35 72 -35 72 -36 73 C-36.20699563 74.49496842 -36.36679259 75.9966592 -36.5 77.5 C-36.88888889 81.88888889 -36.88888889 81.88888889 -38 83 C-38.20699563 84.49496842 -38.36679259 85.9966592 -38.5 87.5 C-38.88888889 91.88888889 -38.88888889 91.88888889 -40 93 C-40.16029688 95.95529504 -40.25957328 98.88982457 -40.31640625 101.84765625 C-40.33718735 102.7340831 -40.35796844 103.62050995 -40.37937927 104.53379822 C-40.444974 107.376617 -40.50380552 110.21953117 -40.5625 113.0625 C-40.6056758 114.98503606 -40.64928978 116.90756234 -40.69335938 118.83007812 C-40.80066543 123.55328668 -40.90190451 128.27659153 -41 133 C-41.33 133 -41.66 133 -42 133 C-42.1008019 127.52723234 -42.17235343 122.05503435 -42.21972656 116.58154297 C-42.23952705 114.72955893 -42.26657479 112.87763458 -42.30175781 111.02587891 C-42.65755518 91.78142737 -39.41897592 74.13502709 -33 56 C-32.58234375 54.80503906 -32.1646875 53.61007812 -31.734375 52.37890625 C-25.8527769 36.67774352 -17.55758343 22.01375669 -7 9 C-5.64323913 7.25201049 -4.28886196 5.50216672 -2.9375 3.75 C-1.95943328 2.49913916 -0.98072934 1.24877433 0 0 Z " fill="#1171C9" transform="translate(394,248)"/>
<path d="M0 0 C-1.49291185 3.80013925 -3.62377323 5.74918216 -7 8 C-8.32 8 -9.64 8 -11 8 C-11 8.66 -11 9.32 -11 10 C-12.99284138 11.3440093 -14.99419671 12.67541292 -17 14 C-18.68711423 15.6459651 -20.3545622 17.31237149 -22 19 C-22.78375 19.5775 -23.5675 20.155 -24.375 20.75 C-27.54446404 23.46668346 -29.86714862 26.51386912 -32.37109375 29.83984375 C-33.57204712 31.43247496 -34.83314624 32.98017204 -36.125 34.5 C-38.32142527 37.42856702 -40.02429789 40.49770885 -41.75390625 43.71875 C-42.62595991 45.31523695 -43.55170928 46.88301923 -44.515625 48.42578125 C-46.07078675 51.12275913 -47.14405322 53.75705368 -48.1875 56.6875 C-48.53167969 57.64011719 -48.87585938 58.59273438 -49.23046875 59.57421875 C-50.10079331 61.89357664 -50.10079331 61.89357664 -50 64 C-50.99 64.495 -50.99 64.495 -52 65 C-52.8780345 67.77229377 -52.8780345 67.77229377 -53.5625 71 C-54.90687023 76.90687023 -54.90687023 76.90687023 -56 78 C-56.18524792 79.37024654 -56.3230586 80.7470321 -56.4375 82.125 C-56.96449513 87.37822129 -58.33136151 91.99408453 -60 97 C-60.66 97 -61.32 97 -62 97 C-54.69380337 55.1367751 -38.59125498 26.21748338 -4 1 C-2 0 -2 0 0 0 Z " fill="#0B65C9" transform="translate(454,319)"/>
<path d="M0 0 C0 4.00479798 -1.57461672 5.79360801 -3.6875 9.1875 C-12.45101202 23.87927015 -15.39499495 40.43457129 -15.375 57.375 C-15.37556396 58.59147217 -15.37612793 59.80794434 -15.37670898 61.0612793 C-15.25358431 71.32368727 -13.79366822 80.93795554 -11.45751953 90.90478516 C-10.79901694 93.92040374 -10.38827106 96.93878923 -10 100 C-17.8812124 88.17818141 -18.42387009 70.82711788 -19 57 C-19.33 57 -19.66 57 -20 57 C-20.17539024 51.07046059 -19.62009755 45.73061239 -18.375 39.9375 C-18.10985596 38.70012085 -18.10985596 38.70012085 -17.83935547 37.43774414 C-14.74533451 23.78587041 -9.24695895 10.66956801 0 0 Z " fill="#165DAE" transform="translate(489,348)"/>
<path d="M0 0 C-3.76624671 1.25541557 -5.37188934 0.37061958 -9 -1 C-9 -1.66 -9 -2.32 -9 -3 C-10.175625 -3.3403125 -10.175625 -3.3403125 -11.375 -3.6875 C-14.36698618 -4.77080534 -16.945778 -5.96904305 -19.75 -7.4375 C-23.96298659 -9.59459974 -28.07644642 -11.06340276 -32.6328125 -12.3125 C-34.83818152 -12.95300321 -36.88330921 -13.74092031 -39 -14.625 C-43.54327649 -16.40320863 -48.16358177 -16.7125899 -53 -17 C-53 -17.33 -53 -17.66 -53 -18 C-63.32558869 -19.86498813 -73.29296376 -20.28545561 -83.75439453 -20.20581055 C-86.28818544 -20.18721983 -88.82161584 -20.18530384 -91.35546875 -20.18554688 C-92.97135735 -20.18064195 -94.58724348 -20.17481816 -96.203125 -20.16796875 C-96.9582135 -20.16685593 -97.713302 -20.1657431 -98.49127197 -20.16459656 C-102.37355338 -20.20060767 -102.37355338 -20.20060767 -106 -19 C-107.54023996 -18.93049459 -109.08334988 -18.91547643 -110.625 -18.9375 C-111.85089844 -18.95103516 -111.85089844 -18.95103516 -113.1015625 -18.96484375 C-114.04128906 -18.98224609 -114.04128906 -18.98224609 -115 -19 C-92.83706236 -41.16293764 -21.26373099 -13.95432346 0 0 Z " fill="#42DFE3" transform="translate(601,216)"/>
<path d="M0 0 C0.99 0.66 1.98 1.32 3 2 C2.50371094 2.4125 2.00742187 2.825 1.49609375 3.25 C-16.47115339 18.52386474 -27.37086636 39.9406037 -29.80151367 63.41650391 C-30.98014566 78.7575662 -30.50798724 94.00753072 -27 109 C-31.16970867 105.33955784 -31.41551707 101.35230498 -32 96 C-32.34136461 90.31237647 -32.37165065 84.62106197 -32.37060547 78.92480469 C-32.37496792 76.26952412 -32.41134658 73.61592423 -32.44921875 70.9609375 C-32.51750623 60.55742558 -31.5513644 51.86508336 -28 42 C-27.33116875 40.00072283 -26.66386725 38.00093096 -26 36 C-25.34 36 -24.68 36 -24 36 C-24.12375 34.9790625 -24.12375 34.9790625 -24.25 33.9375 C-23.95265759 30.44372663 -22.7680512 28.57934612 -20.95703125 25.6484375 C-19.88924832 23.80923588 -19.33581998 22.09887488 -19 20 C-18.01 20 -17.02 20 -16 20 C-15.34 18.35 -14.68 16.7 -14 15 C-13.34 15 -12.68 15 -12 15 C-11.731875 14.05125 -11.46375 13.1025 -11.1875 12.125 C-10 9 -10 9 -7 7 C-6.34 6.01 -5.68 5.02 -5 4 C-4.34 3.34 -3.68 2.68 -3 2 C-2.01 2 -1.02 2 0 2 C0 1.34 0 0.68 0 0 Z " fill="#116FCA" transform="translate(419,304)"/>
<path d="M0 0 C2.99557417 2.99557417 3.19598443 6.72364077 4 10.75 C4.165 11.52988281 4.33 12.30976563 4.5 13.11328125 C7.01611177 25.35966901 8.34455716 37.30347739 8.25 49.8125 C8.24250732 51.12911621 8.23501465 52.44573242 8.22729492 53.80224609 C8.00732506 73.73225301 4.52386667 92.16265146 -2 111 C-2.33 111 -2.66 111 -3 111 C-3.57038716 103.96522502 -1.14918705 97.3198737 1.125 90.75 C2.15017083 87.52803454 2.5410684 84.34364455 3 81 C3.495 80.505 3.495 80.505 4 80 C4.07296482 77.28206055 3.99626869 74.57742685 3.9375 71.859375 C3.99758914 69.11029664 4.37594876 66.67171936 5 64 C5.66 64 6.32 64 7 64 C6.67 56.41 6.34 48.82 6 41 C5.34 41 4.68 41 4 41 C4.02320313 39.81664062 4.04640625 38.63328125 4.0703125 37.4140625 C4.37567247 25.06049269 4.37567247 25.06049269 2 13 C1.67 12.67 1.34 12.34 1 12 C0.76572222 9.98405418 0.58663876 7.961526 0.4375 5.9375 C0.35371094 4.83277344 0.26992188 3.72804688 0.18359375 2.58984375 C0.09271484 1.30787109 0.09271484 1.30787109 0 0 Z " fill="#3CCBD9" transform="translate(676,313)"/>
<path d="M0 0 C0.33 0 0.66 0 1 0 C1.14695312 1.12792969 1.29390625 2.25585938 1.4453125 3.41796875 C4.21923381 23.3606194 9.57517215 42.26783349 19.1796875 60.0390625 C19.45039062 60.68617188 19.72109375 61.33328125 20 62 C19.67 62.66 19.34 63.32 19 64 C17.515 64.495 17.515 64.495 16 65 C7.57496897 47.43291401 -0.31122763 26.87014747 -0.0625 7.125 C-0.05798828 6.43664062 -0.05347656 5.74828125 -0.04882812 5.0390625 C-0.03716336 3.35933665 -0.01923271 1.67965625 0 0 Z " fill="#2575BC" transform="translate(510,384)"/>
<path d="M0 0 C0.33 0 0.66 0 1 0 C2.06946099 7.12973993 2.04459242 13.85034522 1 21 C0.67 21.33 0.34 21.66 0 22 C-0.23363881 23.84891946 -0.41303635 25.70488031 -0.5625 27.5625 C-0.64628906 28.57441406 -0.73007812 29.58632813 -0.81640625 30.62890625 C-0.87699219 31.41136719 -0.93757813 32.19382812 -1 33 C0.134375 32.401875 1.26875 31.80375 2.4375 31.1875 C6.82252057 28.98322311 11.31390503 27.43186235 16 26 C16 25.34 16 24.68 16 24 C16.721875 23.896875 17.44375 23.79375 18.1875 23.6875 C21.08953219 23.13181279 21.08953219 23.13181279 23.625 21.375 C24.40875 20.92125 25.1925 20.4675 26 20 C26.99 20.33 27.98 20.66 29 21 C29 20.34 29 19.68 29 19 C29.99 19 30.98 19 32 19 C32 18.34 32 17.68 32 17 C33.26691507 16.32591692 34.53870749 15.66099503 35.8125 15 C36.52019531 14.62875 37.22789062 14.2575 37.95703125 13.875 C40 13 40 13 43 13 C43 12.01 43 11.02 43 10 C42.34 10 41.68 10 41 10 C41 9.34 41 8.68 41 8 C40.34 8 39.68 8 39 8 C39.33 6.68 39.66 5.36 40 4 C40.86657116 5.09445838 41.71792724 6.20097781 42.5625 7.3125 C43.03816406 7.92738281 43.51382813 8.54226563 44.00390625 9.17578125 C44.49697266 10.07876953 44.49697266 10.07876953 45 11 C43.22277871 16.33166386 37.20146307 18.30225125 32.41210938 20.80273438 C3.8091354 35 3.8091354 35 -4 35 C-3.91435791 34.36610352 -3.82871582 33.73220703 -3.74047852 33.07910156 C-1.47595707 16.58144268 -1.47595707 16.58144268 0 0 Z " fill="#0838B6" transform="translate(382,472)"/>
<path d="M0 0 C0.58203125 1.890625 0.58203125 1.890625 1 4 C-0.3125 5.75 -0.3125 5.75 -2 7 C-2.66 7 -3.32 7 -4 7 C-4.2475 7.598125 -4.495 8.19625 -4.75 8.8125 C-7.45913953 13.55349418 -12.13577152 15.03290217 -16.9765625 17.03515625 C-19.1613192 17.93870883 -19.1613192 17.93870883 -21 20 C-20.97592519 21.96908857 -20.97592519 21.96908857 -20.5625 24.3125 C-19.88167897 30.29571541 -20.0829931 36.12645965 -20.375 42.125 C-20.41826416 43.07415283 -20.46152832 44.02330566 -20.50610352 45.0012207 C-20.86893806 51.86893806 -20.86893806 51.86893806 -22 53 C-22.07271741 55.35313555 -22.08370868 57.70833668 -22.0625 60.0625 C-22.05347656 61.35285156 -22.04445313 62.64320313 -22.03515625 63.97265625 C-22.02355469 64.97167969 -22.01195312 65.97070312 -22 67 C-23.98 67.99 -23.98 67.99 -26 69 C-25.5253864 63.21720796 -24.94305998 57.45960115 -24.21362305 51.70385742 C-22.73939776 39.937428 -22.94737464 28.82323837 -24 17 C-22.9378125 16.52691406 -21.875625 16.05382812 -20.78125 15.56640625 C-12.19363139 11.59727062 -5.58824095 7.94118451 0 0 Z " fill="#1581CB" transform="translate(636,431)"/>
<path d="M0 0 C0.33 0 0.66 0 1 0 C1.20488353 12.90766208 1.20488353 12.90766208 0 18 C-0.66 18.33 -1.32 18.66 -2 19 C-2 34.51 -2 50.02 -2 66 C-4.13161762 61.73676475 -4.66003673 58.08952694 -5.125 53.4375 C-5.2077417 52.62321533 -5.2904834 51.80893066 -5.37573242 50.9699707 C-7.04035921 33.77110832 -4.84408573 16.59357025 0 0 Z " fill="#01224E" transform="translate(416,392)"/>
<path d="M0 0 C0.33 0 0.66 0 1 0 C0.15258342 12.99973089 0.15258342 12.99973089 -0.5625 17.6875 C-2.89532617 35.35032675 0.66028371 52.38712598 8.36328125 68.22265625 C8.57339844 68.80917969 8.78351563 69.39570313 9 70 C8.505 70.99 8.505 70.99 8 72 C2.13904785 63.40073414 -1.17511094 55.39360214 -2 45 C-2.33 44.67 -2.66 44.34 -3 44 C-3.24551154 39.64142611 -3.22866832 35.27660355 -3.24023438 30.91186523 C-3.24979387 28.73445231 -3.28072715 26.5580444 -3.3125 24.38085938 C-3.37526641 15.88659292 -2.59056365 8.1555867 0 0 Z " fill="#0C54BA" transform="translate(412,404)"/>
<path d="M0 0 C4.17087411 1.39029137 5.18208698 4.27843718 7.1875 7.9375 C7.55552734 8.58396484 7.92355469 9.23042969 8.30273438 9.89648438 C11 14.71553224 11 14.71553224 11 17 C10.34 17 9.68 17 9 17 C9.48210938 17.96421875 9.96421875 18.9284375 10.4609375 19.921875 C12.30729167 23.61458333 14.15364583 27.30729167 16 31 C16.42539062 31.74765625 16.85078125 32.4953125 17.2890625 33.265625 C18 35 18 35 17 38 C16.72849121 37.47680176 16.45698242 36.95360352 16.17724609 36.41455078 C9.52999189 23.50672328 9.52999189 23.50672328 2.15625 11.0078125 C-1.19321744 5.19150755 -1.19321744 5.19150755 -0.625 1.6875 C-0.41875 1.130625 -0.2125 0.57375 0 0 Z " fill="#2272C0" transform="translate(528,447)"/>
<path d="M0 0 C0.66 0 1.32 0 2 0 C1.70977347 6.67521009 -0.92445085 11.7472504 -5 17 C-5.58128662 17.39896484 -6.16257324 17.79792969 -6.76147461 18.20898438 C-9.9422877 20.39471198 -11.76174502 21.79550087 -12.53222656 25.69067383 C-12.61775629 28.94363721 -12.51123591 32.12708741 -12.3125 35.375 C-11.99084254 42.68305743 -11.77102268 48.98000247 -14 56 C-14.99 56 -15.98 56 -17 56 C-16.7834375 55.27296875 -16.566875 54.5459375 -16.34375 53.796875 C-14.07353168 45.59886442 -12.92021025 37.71797754 -14.515625 29.26953125 C-15.00062564 26.68416492 -15.33858956 24.61263024 -15 22 C-13.24126745 19.91541092 -11.33287772 18.46892377 -9.140625 16.8515625 C-4.25386175 12.62469063 -2.32156878 5.87712458 0 0 Z " fill="#25BADB" transform="translate(654,373)"/>
<path d="M0 0 C0.99 0.33 1.98 0.66 3 1 C2.18208984 2.22009766 2.18208984 2.22009766 1.34765625 3.46484375 C-10.08006528 20.72924975 -19.23954955 38.73933889 -24 59 C-26.15402992 51.40334486 -22.97212485 44.90995589 -20 38 C-19.51917969 36.85402344 -19.03835938 35.70804687 -18.54296875 34.52734375 C-15.88718548 28.24086943 -13.14868435 22.05516222 -10 16 C-9.34 16 -8.68 16 -8 16 C-8.33 14.68 -8.66 13.36 -9 12 C-8.01 12 -7.02 12 -6 12 C-6 11.01 -6 10.02 -6 9 C-5.34 9 -4.68 9 -4 9 C-3.896875 8.2575 -3.79375 7.515 -3.6875 6.75 C-2.95746496 3.82985982 -1.93210602 2.26812446 0 0 Z " fill="#00254D" transform="translate(381,261)"/>
<path d="M0 0 C0.33 0 0.66 0 1 0 C1.01981934 0.59425781 1.03963867 1.18851562 1.06005859 1.80078125 C1.15623993 4.53424419 1.26553557 7.26703803 1.375 10 C1.4059375 10.93457031 1.436875 11.86914062 1.46875 12.83203125 C1.7065566 18.49975528 2.41870048 23.54901628 4 29 C4.99 28.67 5.98 28.34 7 28 C7 25.69 7 23.38 7 21 C7.66 21 8.32 21 9 21 C8.32545897 28.8246759 6.73123042 36.34556614 5 44 C-2.9666501 32.05002485 -0.3008504 13.57838151 0 0 Z " fill="#02264B" transform="translate(388,370)"/>
<path d="M0 0 C2.75151959 2.61394361 4.12180492 4.8529459 5.5 8.375 C5.5 9.035 5.5 9.695 5.5 10.375 C6.16 10.375 6.82 10.375 7.5 10.375 C7.5 11.695 7.5 13.015 7.5 14.375 C8.16 14.375 8.82 14.375 9.5 14.375 C9.5 16.685 9.5 18.995 9.5 21.375 C4.22 21.045 -1.06 20.715 -6.5 20.375 C-6.17 19.715 -5.84 19.055 -5.5 18.375 C-1.21 18.705 3.08 19.035 7.5 19.375 C6.62148312 17.11681915 5.72344756 14.87007369 4.8125 12.625 C4.44608398 11.67367188 4.44608398 11.67367188 4.07226562 10.703125 C2.29100528 6.37398595 0.57086544 3.73739803 -3.5 1.375 C-6.67835357 0.85669905 -6.67835357 0.85669905 -10 1.0625 C-11.1034375 1.08699219 -12.206875 1.11148437 -13.34375 1.13671875 C-16.14848006 1.34846198 -18.7623752 1.7467764 -21.5 2.375 C-21.5 1.715 -21.5 1.055 -21.5 0.375 C-14.41361174 -2.14460471 -6.98435539 -3.24273643 0 0 Z " fill="#E5D163" transform="translate(581.5,310.625)"/>
<path d="M0 0 C0.33 0 0.66 0 1 0 C1.33 13.53 1.66 27.06 2 41 C2.66 41.33 3.32 41.66 4 42 C4 49.92 4 57.84 4 66 C1.98955209 61.97910419 1.56556526 59.58117794 1.1484375 55.171875 C1.05280014 54.17187469 1.05280014 54.17187469 0.95523071 53.15167236 C0.82200768 51.73657149 0.69281826 50.32108586 0.56738281 48.90527344 C0.37924691 46.79757837 0.17508262 44.691919 -0.03125 42.5859375 C-1.17911271 30.39620073 -1.51825973 18.21911673 -0.5 6 C-0.4071875 4.845 -0.314375 3.69 -0.21875 2.5 C-0.1465625 1.675 -0.074375 0.85 0 0 Z " fill="#1155B2" transform="translate(468,406)"/>
<path d="M0 0 C0.99 0.33 1.98 0.66 3 1 C3 4.63 3 8.26 3 12 C2.34 12 1.68 12 1 12 C1 13.32 1 14.64 1 16 C-0.32 16.33 -1.64 16.66 -3 17 C-3 17.66 -3 18.32 -3 19 C-3.99 19 -4.98 19 -6 19 C-6 19.66 -6 20.32 -6 21 C-10.68312034 22.83823415 -14.89464923 23.31602738 -19.875 23.25 C-20.57882812 23.24613281 -21.28265625 23.24226563 -22.0078125 23.23828125 C-26.98762916 23.15528431 -31.29107427 22.56964191 -36 21 C-36 20.34 -36 19.68 -36 19 C-34.80375 19.165 -33.6075 19.33 -32.375 19.5 C-22.82063539 20.52637724 -13.83180821 21.16594727 -5 17 C-4.01 16.67 -3.02 16.34 -2 16 C-0.83046584 13.57616923 -0.83046584 13.57616923 0 11 C0.33 10.34 0.66 9.68 1 9 C1.14375422 5.62177584 1.07536348 3.22609045 0 0 Z " fill="#28141E" transform="translate(622,406)"/>
<path d="M0 0 C0.33 0 0.66 0 1 0 C1 5.94 1 11.88 1 18 C6.94 18 12.88 18 19 18 C18.95875 15.7725 18.9175 13.545 18.875 11.25 C18.78673896 6.48390408 18.83030855 4.33938291 21 0 C21 6.6 21 13.2 21 20 C14.07 20 7.14 20 0 20 C0 13.4 0 6.8 0 0 Z " fill="#FFF2EA" transform="translate(474,797)"/>
<path d="M0 0 C1.02689941 -0.00080566 2.05379883 -0.00161133 3.11181641 -0.00244141 C7.94966805 0.03344179 12.55859511 0.17516932 17.3125 1.1875 C15.3125 3.1875 15.3125 3.1875 11.8125 3.39868164 C10.31242036 3.39158444 8.81236781 3.37384476 7.3125 3.34765625 C6.52101563 3.34245468 5.72953125 3.33725311 4.9140625 3.33189392 C2.38002363 3.31404836 -0.15361491 3.28287332 -2.6875 3.25 C-5.22134632 3.22240603 -7.75513586 3.19769293 -10.2890625 3.17881775 C-11.86723979 3.16653844 -13.44538607 3.14891331 -15.0234375 3.12550354 C-18.98373338 2.99864485 -18.98373338 2.99864485 -22.6875 4.1875 C-24.22773996 4.25700541 -25.77084988 4.27202357 -27.3125 4.25 C-28.53839844 4.23646484 -28.53839844 4.23646484 -29.7890625 4.22265625 C-30.72878906 4.20525391 -30.72878906 4.20525391 -31.6875 4.1875 C-28.95867866 1.45867866 -26.24188278 1.47433014 -22.5625 1.0625 C-21.8305542 0.97830811 -21.0986084 0.89411621 -20.34448242 0.80737305 C-13.56717475 0.11882928 -6.80838819 0.00518537 0 0 Z " fill="#38D0DC" transform="translate(517.6875,192.8125)"/>
<path d="M0 0 C0 4.00479798 -1.57461672 5.79360801 -3.6875 9.1875 C-8.22923418 16.77743847 -10.65791491 24.51881309 -13 33 C-13.59945804 35.00141635 -14.20283935 37.00166788 -14.8125 39 C-15.20934067 40.33303387 -15.60564015 41.66623011 -16 43 C-16.33 43 -16.66 43 -17 43 C-18.23004355 28.97750355 -10.88980242 12.89029161 -2.0625 2.1875 C-1.381875 1.465625 -0.70125 0.74375 0 0 Z " fill="#296BAB" transform="translate(489,348)"/>
<path d="M0 0 C0.33 0 0.66 0 1 0 C1.01458252 1.00264893 1.02916504 2.00529785 1.04418945 3.03833008 C1.1027866 6.80901242 1.1800068 10.57913525 1.26245117 14.34936523 C1.29541499 15.97166771 1.32353272 17.59407703 1.34643555 19.21655273 C1.46929353 27.69375338 1.5979681 35.60954911 4.34960938 43.7265625 C5.43356742 47.51553297 5.19243639 51.0871268 5 55 C5.66 55.33 6.32 55.66 7 56 C7.4140625 58.28515625 7.4140625 58.28515625 7.625 61.0625 C7.69976562 61.98160156 7.77453125 62.90070313 7.8515625 63.84765625 C7.90054687 64.55792969 7.94953125 65.26820313 8 66 C6 65 6 65 5.32983398 63.08569336 C5.04088257 61.8502478 5.04088257 61.8502478 4.74609375 60.58984375 C4.53146484 59.68169922 4.31683594 58.77355469 4.09570312 57.83789062 C3.87849609 56.88076172 3.66128906 55.92363281 3.4375 54.9375 C3.21642578 54.00744141 2.99535156 53.07738281 2.76757812 52.11914062 C0.83417159 43.80724486 -0.15657602 35.86176705 -0.09765625 27.34375 C-0.0962413 26.55601196 -0.09482635 25.76827393 -0.09336853 24.95666504 C-0.08782612 22.47106936 -0.07528485 19.98556789 -0.0625 17.5 C-0.05747754 15.80208465 -0.05291595 14.10416786 -0.04882812 12.40625 C-0.03787564 8.27079771 -0.02065166 4.13541476 0 0 Z " fill="#0E54B6" transform="translate(351,346)"/>
<path d="M0 0 C1 3 1 3 -0.0390625 5.0859375 C-3.08772422 9.48622264 -6.20938184 13.20938184 -10 17 C-13.58471377 21.8137585 -16.57801394 26.8032638 -19.04296875 32.2734375 C-20.1132275 34.20427165 -21.3806014 35.5128903 -23 37 C-21.30142888 26.210213 -13.54366072 17.35505469 -7 9 C-6.29617188 8.08992188 -5.59234375 7.17984375 -4.8671875 6.2421875 C-3.25175917 4.15586509 -1.62973047 2.0751552 0 0 Z " fill="#1488D2" transform="translate(394,248)"/>
<path d="M0 0 C0.33 0 0.66 0 1 0 C1.17015625 1.19753906 1.3403125 2.39507812 1.515625 3.62890625 C2.88385473 12.92366376 4.56267237 21.88588194 7.23046875 30.8984375 C7.93880568 33.75335894 8.15867122 36.0782609 8 39 C7.34 39 6.68 39 6 39 C1.74278758 25.89623979 -0.51987569 13.7478237 0 0 Z " fill="#3086C2" transform="translate(510,384)"/>
<path d="M0 0 C6.6 0.33 13.2 0.66 20 1 C20 1.33 20 1.66 20 2 C14.06 2.33 8.12 2.66 2 3 C0.68 6.3 -0.64 9.6 -2 13 C-7.61 13 -13.22 13 -19 13 C-18.01 10.36 -17.02 7.72 -16 5 C-15 9 -15 9 -16 11 C-11.71 11 -7.42 11 -3 11 C-2.690625 9.55625 -2.38125 8.1125 -2.0625 6.625 C-1.54516353 4.21076314 -1.10514766 2.21029533 0 0 Z " fill="#EB7A66" transform="translate(540,838)"/>
<path d="M0 0 C2.99443253 2.99443253 3.1990392 6.72419994 4 10.75 C4.17370117 11.60094238 4.34740234 12.45188477 4.52636719 13.32861328 C8.18565158 31.61473706 8.18565158 31.61473706 8 40 C6.02 40.495 6.02 40.495 4 41 C4.02320313 39.81664062 4.04640625 38.63328125 4.0703125 37.4140625 C4.37567247 25.06049269 4.37567247 25.06049269 2 13 C1.67 12.67 1.34 12.34 1 12 C0.76572222 9.98405418 0.58663876 7.961526 0.4375 5.9375 C0.35371094 4.83277344 0.26992188 3.72804688 0.18359375 2.58984375 C0.09271484 1.30787109 0.09271484 1.30787109 0 0 Z " fill="#3DD3D9" transform="translate(676,313)"/>
<path d="M0 0 C0.66 0.33 1.32 0.66 2 1 C0.99067907 4.36440311 -0.17004393 7.32249711 -1.8125 10.4375 C-6.19212895 18.95071134 -8.90990438 28.68957407 -11 38 C-11.66 38 -12.32 38 -13 38 C-13.33 39.32 -13.66 40.64 -14 42 C-14.042721 40.33388095 -14.04063832 38.66617115 -14 37 C-13.505 36.505 -13.505 36.505 -13 36 C-12.87625 34.96875 -12.7525 33.9375 -12.625 32.875 C-12 29 -12 29 -10.4375 25.375 C-9.08305793 22.19500559 -8.69235532 20.38409152 -9 17 C-8.01 16.67 -7.02 16.34 -6 16 C-5.9175 15.319375 -5.835 14.63875 -5.75 13.9375 C-5.07984855 11.31274015 -4.35885874 9.72195817 -3 7.4375 C-1.44160643 4.75901106 -0.47799966 2.98749787 0 0 Z " fill="#0B64C9" transform="translate(425,366)"/>
<path d="M0 0 C3.17070317 3.06842242 6.13669733 6.25900281 9.0625 9.5625 C14.46909388 15.61751983 20.21862058 21.30666189 26 27 C22.51344049 27 22.15712813 26.5663905 19.6875 24.3125 C17.40246436 22.25499969 15.10390725 20.27614394 12.6875 18.375 C10.21202621 16.187372 9.34105902 14.88843482 8 12 C7.01 11.67 6.02 11.34 5 11 C4.31867549 9.33927151 3.65257873 7.672233 3 6 C2.01 5.34 1.02 4.68 0 4 C0 2.68 0 1.36 0 0 Z " fill="#F27C32" transform="translate(556,332)"/>
<path d="M0 0 C3.31490909 -0.30135537 4.97826428 -0.01082546 8.00390625 1.49609375 C12.85127236 3.64814343 17.65852483 3.36464781 22.875 3.25 C23.83664062 3.24484375 24.79828125 3.2396875 25.7890625 3.234375 C30.23093151 3.58460455 30.23093151 3.58460455 34 2 C35.66617115 1.95936168 37.33388095 1.957279 39 2 C32.53125435 7.3136125 25.04929324 6.48580542 17 6 C11.08002784 4.95569792 5.54585654 3.30659494 0 1 C0 0.67 0 0.34 0 0 Z " fill="#D85257" transform="translate(578,421)"/>
<path d="M0 0 C4.11824281 4.40979983 5.79810314 9.1623811 7.75 14.75 C8.06582031 15.62527344 8.38164063 16.50054688 8.70703125 17.40234375 C11 23.80478896 11 23.80478896 11 25 C4.4 24.67 -2.2 24.34 -9 24 C-9 23.67 -9 23.34 -9 23 C-3.39 23 2.22 23 8 23 C6.03086042 17.86739639 6.03086042 17.86739639 4.05078125 12.73901367 C3.80714844 12.09681885 3.56351562 11.45462402 3.3125 10.79296875 C3.06113281 10.1383667 2.80976563 9.48376465 2.55078125 8.80932617 C2 7 2 7 2 4 C1.34 4 0.68 4 0 4 C0 2.68 0 1.36 0 0 Z " fill="#0A3DAD" transform="translate(505,502)"/>
<path d="M0 0 C0.66 0 1.32 0 2 0 C2.6708712 1.6232687 3.33657029 3.24867578 4 4.875 C4.556875 6.23238281 4.556875 6.23238281 5.125 7.6171875 C6 10 6 10 6 12 C3.03 12 0.06 12 -3 12 C-1.125 3.375 -1.125 3.375 0 0 Z " fill="#FEE6DD" transform="translate(550,816)"/>
<path d="M0 0 C-1.49291185 3.80013925 -3.62377323 5.74918216 -7 8 C-8.32 8 -9.64 8 -11 8 C-11 8.66 -11 9.32 -11 10 C-12.99284138 11.3440093 -14.99419671 12.67541292 -17 14 C-18.68615782 15.64694485 -20.35570171 17.31126121 -22 19 C-22.99 19.66 -23.98 20.32 -25 21 C-24.75263896 17.70700609 -23.78202037 16.78526411 -21.375 14.4140625 C-20.25915358 13.47340815 -19.13358292 12.54420271 -18 11.625 C-17.41565186 11.14184326 -16.83130371 10.65868652 -16.22924805 10.16088867 C-3.78877125 0 -3.78877125 0 0 0 Z " fill="#1783CD" transform="translate(454,319)"/>
<path d="M0 0 C-2.89585905 2.29648357 -5.8172031 4.04347557 -9.125 5.6875 C-10.42824219 6.34298828 -10.42824219 6.34298828 -11.7578125 7.01171875 C-14 8 -14 8 -16 8 C-16 7.34 -16 6.68 -16 6 C-16.9075 6.350625 -17.815 6.70125 -18.75 7.0625 C-22.00591313 8.00170571 -22.92749994 7.95514676 -26 7 C-22.60834995 5.82091891 -19.21107288 4.65896034 -15.8125 3.5 C-14.85279297 3.16613281 -13.89308594 2.83226562 -12.90429688 2.48828125 C-11.97294922 2.17246094 -11.04160156 1.85664063 -10.08203125 1.53125 C-8.80162964 1.09135742 -8.80162964 1.09135742 -7.49536133 0.64257812 C-4.89588043 -0.02681173 -2.67235471 -0.11719018 0 0 Z " fill="#1B99CE" transform="translate(497,303)"/>
<path d="M0 0 C0.68707555 2.49064888 1 4.37886292 1 7 C2.7015625 6.9690625 2.7015625 6.9690625 4.4375 6.9375 C8 7 8 7 9 8 C10.51469448 8.23192865 12.03754562 8.41215238 13.5625 8.5625 C14.38878906 8.64628906 15.21507812 8.73007812 16.06640625 8.81640625 C16.70449219 8.87699219 17.34257812 8.93757812 18 9 C18 9.66 18 10.32 18 11 C19.11375 10.95875 20.2275 10.9175 21.375 10.875 C25 11 25 11 27 13 C20.53656347 12.58962308 14.41771277 11.53238956 8.125 10.0625 C7.38773682 9.89266602 6.65047363 9.72283203 5.89086914 9.54785156 C2.37326812 8.70237117 -0.86218336 7.83176207 -4 6 C-2.68 4.02 -1.36 2.04 0 0 Z " fill="#093AB4" transform="translate(469,512)"/>
<path d="M0 0 C0.33 0 0.66 0 1 0 C1.31355439 5.01687025 0.63651142 8.28030885 -1.2734375 12.89453125 C-2.29138904 15.84440157 -2.49200867 18.7295514 -2.75390625 21.82421875 C-3.23239974 26.05470883 -4.6576847 29.97305409 -6 34 C-6.66 34 -7.32 34 -8 34 C-7.23900463 30.0188877 -6.46440779 26.04053503 -5.6875 22.0625 C-5.36749023 20.38704102 -5.36749023 20.38704102 -5.04101562 18.67773438 C-3.77729807 12.24597787 -2.22951462 6.16549057 0 0 Z " fill="#0A56BD" transform="translate(400,382)"/>
<path d="M0 0 C2 2 2 2 3.1875 5.8125 C5.90368177 14.36292936 10.42018322 22.03403926 16 29 C17.25 32.3125 17.25 32.3125 18 35 C10.8987753 28.52535395 6.78621957 20.97666056 3.125 12.1875 C2.81449707 11.4459668 2.50399414 10.70443359 2.18408203 9.94042969 C1.89903809 9.23176758 1.61399414 8.52310547 1.3203125 7.79296875 C1.06523926 7.1589917 0.81016602 6.52501465 0.54736328 5.87182617 C0 4 0 4 0 0 Z " fill="#D3595C" transform="translate(527,360)"/>
<path d="M0 0 C0.66 0 1.32 0 2 0 C1.37641068 4.08713966 0.01319083 7.30239832 -1.8125 11 C-4.53670294 16.72278603 -6.47475268 22.40742651 -8.140625 28.515625 C-9 31 -9 31 -11 32 C-10.546047 29.79076207 -10.08663994 27.58264447 -9.625 25.375 C-9.24214844 23.53035156 -9.24214844 23.53035156 -8.8515625 21.6484375 C-8.07977727 18.34179804 -7.13180625 15.19858287 -6 12 C-5.34 12 -4.68 12 -4 12 C-4.12375 10.9790625 -4.12375 10.9790625 -4.25 9.9375 C-3.90053135 5.83124335 -2.18150968 3.47678105 0 0 Z " fill="#1174CD" transform="translate(399,328)"/>
<path d="M0 0 C0 0.33 0 0.66 0 1 C-0.7520874 1.02505615 -1.5041748 1.0501123 -2.27905273 1.07592773 C-5.66539196 1.19150514 -9.05142613 1.31440345 -12.4375 1.4375 C-13.62150391 1.47681641 -14.80550781 1.51613281 -16.02539062 1.55664062 C-17.15009766 1.59853516 -18.27480469 1.64042969 -19.43359375 1.68359375 C-20.47572021 1.72025146 -21.51784668 1.75690918 -22.59155273 1.79467773 C-24.9499826 1.73515341 -24.9499826 1.73515341 -26 3 C-28.24194353 3.40202391 -30.49430782 3.7466095 -32.75 4.0625 C-33.98234375 4.23910156 -35.2146875 4.41570312 -36.484375 4.59765625 C-39.37353186 4.9283042 -42.09916094 5.08303929 -45 5 C-32.92421202 -3.05052532 -13.8532313 -1.12981184 0 0 Z " fill="#01364D" transform="translate(525,234)"/>
<path d="M0 0 C0.33 0 0.66 0 1 0 C2.25262337 7.51574022 2.25262337 7.51574022 1.02139282 9.87591553 C-0.07691614 12.15995451 -0.27111468 13.61203986 -0.31884766 16.12597656 C-0.33871735 16.92650452 -0.35858704 17.72703247 -0.37905884 18.55181885 C-0.39061005 19.40612488 -0.40216125 20.26043091 -0.4140625 21.140625 C-0.43342865 22.02280701 -0.4527948 22.90498901 -0.4727478 23.81390381 C-0.53242848 26.62583816 -0.57888283 29.4378137 -0.625 32.25 C-0.66319038 34.15887181 -0.70224273 36.06772659 -0.7421875 37.9765625 C-0.83812058 42.65090296 -0.92219416 47.32532409 -1 52 C-1.33 52 -1.66 52 -2 52 C-2.04985295 46.36239881 -2.08593183 40.72492913 -2.10986328 35.0871582 C-2.11985174 33.17372397 -2.13344716 31.26030473 -2.15087891 29.34692383 C-2.3319431 8.9452496 -2.3319431 8.9452496 0 0 Z " fill="#0B62CA" transform="translate(354,329)"/>
<path d="M0 0 C0.33 1.32 0.66 2.64 1 4 C0.34 4 -0.32 4 -1 4 C-0.938125 4.763125 -0.87625 5.52625 -0.8125 6.3125 C-1.03698854 9.53016907 -1.71698403 9.89962531 -4 12 C-4.35412344 13.32796291 -4.68521554 14.66216607 -5 16 C-5.495 16.763125 -5.99 17.52625 -6.5 18.3125 C-8.29719965 21.5324827 -8.51215202 24.37598641 -9 28 C-9.66 28.33 -10.32 28.66 -11 29 C-10.45287398 18.05747966 -6.05263391 8.99248467 0 0 Z " fill="#D97353" transform="translate(536,299)"/>
<path d="M0 0 C4.51336506 0.43677726 8.88975691 0.93627295 13.3125 1.9375 C21.74242175 3.72566522 30.42975276 4.22406204 39 5 C39 5.66 39 6.32 39 7 C37.54176788 7.0270043 36.08339325 7.04639787 34.625 7.0625 C33.81289063 7.07410156 33.00078125 7.08570313 32.1640625 7.09765625 C30 7 30 7 28 6 C25.77348886 5.81806718 23.54340929 5.6786685 21.3125 5.5625 C16.17804473 5.22718864 11.84004418 4.679199 7 3 C5.68958022 2.61779423 4.37704696 2.24276016 3.0625 1.875 C2.051875 1.58625 1.04125 1.2975 0 1 C0 0.67 0 0.34 0 0 Z " fill="#001D4D" transform="translate(477,522)"/>
<path d="M0 0 C0.58203125 1.890625 0.58203125 1.890625 1 4 C-0.3125 5.75 -0.3125 5.75 -2 7 C-2.66 7 -3.32 7 -4 7 C-4.2475 7.598125 -4.495 8.19625 -4.75 8.8125 C-7.67961508 13.93932639 -13.64736434 16.05806773 -19 18 C-19.99 18 -20.98 18 -22 18 C-19.65483172 14.48224758 -18.19024145 14.02666149 -14.375 12.375 C-8.06190013 9.36296681 -4.18049524 5.53300841 0 0 Z " fill="#158DCE" transform="translate(636,431)"/>
<path d="M0 0 C2.6707644 0.37657199 3.79395927 0.78044841 5.66796875 2.77734375 C6.16941406 3.49019531 6.67085937 4.20304687 7.1875 4.9375 C7.69667969 5.64777344 8.20585938 6.35804688 8.73046875 7.08984375 C10.77238177 10.1621375 11.12082819 11.9091462 11.09765625 15.5703125 C11.09443359 16.46621094 11.09121094 17.36210937 11.08789062 18.28515625 C11.07951172 19.22230469 11.07113281 20.15945313 11.0625 21.125 C11.05798828 22.06988281 11.05347656 23.01476562 11.04882812 23.98828125 C11.03702357 26.32558387 11.02055759 28.66276061 11 31 C10.34 31.33 9.68 31.66 9 32 C9.04640625 30.7934375 9.0928125 29.586875 9.140625 28.34375 C9.17817287 26.72919164 9.21456977 25.11460622 9.25 23.5 C9.28351562 22.70851563 9.31703125 21.91703125 9.3515625 21.1015625 C9.49740181 12.20536473 5.80869974 6.45411082 0 0 Z " fill="#33C5D5" transform="translate(646,340)"/>
<path d="M0 0 C2.87760072 3.40080085 3.46951823 5.40855469 5 10 C-0.61 10 -6.22 10 -12 10 C-14 6 -14 6 -14 3 C-13.34 3 -12.68 3 -12 3 C-12 4.65 -12 6.3 -12 8 C-7.38 8 -2.76 8 2 8 C1.34 6.68 0.68 5.36 0 4 C0 2.68 0 1.36 0 0 Z " fill="#E16A58" transform="translate(577,841)"/>
<path d="M0 0 C2.78741187 3.20206818 3.55928994 5.79228276 4.3125 9.9375 C5.641151 16.28629721 7.96183314 21.65103812 10.890625 27.41796875 C11.25671875 28.27003906 11.6228125 29.12210937 12 30 C11.67 30.66 11.34 31.32 11 32 C5.69641041 24.2185038 1.85510803 16.47395067 1.1484375 6.984375 C0.97053028 4.60603635 0.52485071 2.32433887 0 0 Z " fill="#0A40BA" transform="translate(409,444)"/>
<path d="M0 0 C0.66 0.33 1.32 0.66 2 1 C2.55353075 19.04100228 2.55353075 19.04100228 -1 26 C-1.66 26 -2.32 26 -3 26 C-2.86722656 25.37996094 -2.73445313 24.75992187 -2.59765625 24.12109375 C-0.99499432 16.08438755 -0.41898338 8.17017596 0 0 Z " fill="#0B3CB4" transform="translate(473,486)"/>
<path d="M0 0 C0.33 0 0.66 0 1 0 C1.78977689 6.21949297 2.13270021 12.36206956 2.1875 18.625 C2.20039062 19.32874756 2.21328125 20.03249512 2.2265625 20.75756836 C2.23598036 25.80613177 1.38077087 30.14274278 0 35 C-0.99 35 -1.98 35 -3 35 C-2.7834375 34.27296875 -2.566875 33.5459375 -2.34375 32.796875 C0.48580822 22.57902586 0.47188245 13.31938637 -0.87890625 2.86328125 C-0.91886719 2.24839844 -0.95882812 1.63351562 -1 1 C-0.67 0.67 -0.34 0.34 0 0 Z " fill="#31A0C8" transform="translate(640,394)"/>
<path d="M0 0 C0.33 0 0.66 0 1 0 C1.43335665 7.45333319 0.32301431 13.56178081 -2 20.625 C-2.28617188 21.53378906 -2.57234375 22.44257813 -2.8671875 23.37890625 C-3.56552645 25.59031291 -4.27648098 27.79673065 -5 30 C-5.33 30 -5.66 30 -6 30 C-6.57038716 22.96522502 -4.14918705 16.3198737 -1.875 9.75 C-0.84817129 6.52282404 -0.40283398 3.35694983 0 0 Z " fill="#26BDDC" transform="translate(679,394)"/>
<path d="M0 0 C0 3.91400264 -1.53966787 5.0783556 -4 8 C-4 8.33 -4 8.66 -4 9 C-3.484375 8.835 -2.96875 8.67 -2.4375 8.5 C0.73363876 7.84951 3.77218334 7.9379266 7 8 C3.54792524 9.96529009 0.11523774 10.7746477 -3.75 11.625 C-5.50570313 12.01558594 -5.50570313 12.01558594 -7.296875 12.4140625 C-8.18890625 12.60742188 -9.0809375 12.80078125 -10 13 C-8.56501627 9.79111679 -6.78256013 7.42193016 -4.4375 4.8125 C-3.81746094 4.11769531 -3.19742187 3.42289062 -2.55859375 2.70703125 C-1.72141231 1.79011824 -0.8779528 0.8779528 0 0 Z " fill="#00324E" transform="translate(445,259)"/>
<path d="M0 0 C0.33 0.99 0.66 1.98 1 3 C-14.31130304 10.94968081 -14.31130304 10.94968081 -22 13 C-22.66 12.67 -23.32 12.34 -24 12 C-22.25197854 11.18325204 -20.50149811 10.37176549 -18.75 9.5625 C-17.77546875 9.11003906 -16.8009375 8.65757812 -15.796875 8.19140625 C-13.50748305 7.21617644 -11.42621254 6.5025726 -9 6 C-9 5.34 -9 4.68 -9 4 C-8.2575 3.896875 -7.515 3.79375 -6.75 3.6875 C-3.82985982 2.95746496 -2.26812446 1.93210602 0 0 Z " fill="#083BC2" transform="translate(407,492)"/>
<path d="M0 0 C1.7866789 2.68001835 2.9322137 5.03128744 4.125 8 C4.47820313 8.86625 4.83140625 9.7325 5.1953125 10.625 C6 13 6 13 6 16 C5.01 16 4.02 16 3 16 C-1.40774487 6.58997722 -1.40774487 6.58997722 -2 2 C-1.34 2 -0.68 2 0 2 C0 1.34 0 0.68 0 0 Z " fill="#2C7EBE" transform="translate(518,421)"/>
<path d="M0 0 C0.66 0.33 1.32 0.66 2 1 C1.68248779 1.45850342 1.36497559 1.91700684 1.0378418 2.3894043 C-0.41386746 4.48767091 -1.86320008 6.58756859 -3.3125 8.6875 C-3.81201172 9.40873047 -4.31152344 10.12996094 -4.82617188 10.87304688 C-6.90058628 13.88163465 -8.91205629 16.84654517 -10.73046875 20.01953125 C-11.14941406 20.67308594 -11.56835938 21.32664062 -12 22 C-12.66 22 -13.32 22 -14 22 C-13.67 20.68 -13.34 19.36 -13 18 C-12.34 18 -11.68 18 -11 18 C-10.8453125 17.195625 -10.8453125 17.195625 -10.6875 16.375 C-9.81907303 13.37497956 -8.44379704 10.7620465 -7 8 C-6.34 8 -5.68 8 -5 8 C-5 7.34 -5 6.68 -5 6 C-4.34 6 -3.68 6 -3 6 C-3 5.01 -3 4.02 -3 3 C-2.34 3 -1.68 3 -1 3 C-0.67 2.01 -0.34 1.02 0 0 Z " fill="#0F78CA" transform="translate(440,345)"/>
<path d="M0 0 C1.33597652 0.80814651 2.668725 1.62163181 4 2.4375 C4.7425 2.88996094 5.485 3.34242188 6.25 3.80859375 C7.11625 4.39833984 7.11625 4.39833984 8 5 C8 5.33 8 5.66 8 6 C1.67572401 7.35991738 -4.56025419 8.37679879 -11 9 C-10.360625 8.896875 -9.72125 8.79375 -9.0625 8.6875 C-8.0415625 8.3471875 -8.0415625 8.3471875 -7 8 C-6.67 7.01 -6.34 6.02 -6 5 C-4.35 5.33 -2.7 5.66 -1 6 C-0.67 4.02 -0.34 2.04 0 0 Z " fill="#31BBDC" transform="translate(537,275)"/>
<path d="M0 0 C0.33 0.66 0.66 1.32 1 2 C2.66666667 2.33333333 4.33333333 2.66666667 6 3 C8.02237052 3.95394836 10.0282696 4.94535351 12 6 C12 6.66 12 7.32 12 8 C13.65 8.33 15.3 8.66 17 9 C17 9.66 17 10.32 17 11 C18.97290587 13.34869747 20.00306862 14.00102287 23 15 C22.67 15.99 22.34 16.98 22 18 C22 17.34 22 16.68 22 16 C21.12214844 15.85304688 21.12214844 15.85304688 20.2265625 15.703125 C17.55979155 14.8609868 16.36524057 13.69789502 14.375 11.75 C10.03731507 7.78060907 5.34224091 5.37554565 0 3 C0 2.01 0 1.02 0 0 Z " fill="#38D7DE" transform="translate(576,265)"/>
<path d="M0 0 C0.33 0 0.66 0 1 0 C0.91020874 0.87180908 0.91020874 0.87180908 0.81860352 1.76123047 C0.12910239 8.54410597 -0.47915345 15.33225345 -1.0625 22.125 C-1.19881836 23.7028125 -1.19881836 23.7028125 -1.33789062 25.3125 C-1.55919303 27.87494894 -1.77988588 30.43744876 -2 33 C-2.33 33 -2.66 33 -3 33 C-3.08809201 29.18764896 -3.1407549 25.37556447 -3.1875 21.5625 C-3.21263672 20.49322266 -3.23777344 19.42394531 -3.26367188 18.32226562 C-3.32502682 11.63457674 -2.6266193 6.17418403 0 0 Z " fill="#00244D" transform="translate(470,387)"/>
<path d="M0 0 C0 3.84564079 -1.13925171 4.75845035 -3.5625 7.6875 C-4.64724609 9.00427734 -4.64724609 9.00427734 -5.75390625 10.34765625 C-8.79340425 13.93690693 -11.86554769 17.49333148 -15 21 C-15 13.37930129 -4.91448962 5.39955613 0 0 Z " fill="#1273C3" transform="translate(428,338)"/>
<path d="M0 0 C1 2 1 2 0.51171875 3.8046875 C0.10373047 4.82949219 0.10373047 4.82949219 -0.3125 5.875 C-0.73402344 6.93847656 -0.73402344 6.93847656 -1.1640625 8.0234375 C-2.02699115 10.06382021 -2.94457826 12.0515291 -4 14 C-4.12375 13.071875 -4.12375 13.071875 -4.25 12.125 C-4.80115872 9.81418662 -4.80115872 9.81418662 -7.046875 8.8671875 C-7.69140625 8.58101563 -8.3359375 8.29484375 -9 8 C-7.87811441 6.85111717 -6.75238316 5.70598863 -5.625 4.5625 C-4.99851562 3.92441406 -4.37203125 3.28632813 -3.7265625 2.62890625 C-2 1 -2 1 0 0 Z " fill="#E68240" transform="translate(546,290)"/>
<path d="M0 0 C3.5625 0.1875 3.5625 0.1875 5.5625 2.1875 C4.47710938 2.36925781 3.39171875 2.55101562 2.2734375 2.73828125 C0.82803863 2.99169534 -0.61726918 3.24562925 -2.0625 3.5 C-2.77535156 3.61794922 -3.48820313 3.73589844 -4.22265625 3.85742188 C-8.76421259 4.66990214 -12.33307046 5.98737786 -16.4375 8.1875 C-17.0975 8.1875 -17.7575 8.1875 -18.4375 8.1875 C-18.4375 7.5275 -18.4375 6.8675 -18.4375 6.1875 C-16.78928756 5.15736723 -15.12246298 4.15635372 -13.4375 3.1875 C-13.4375 2.8575 -13.4375 2.5275 -13.4375 2.1875 C-12.48037109 2.09662109 -12.48037109 2.09662109 -11.50390625 2.00390625 C-10.26447266 1.87822266 -10.26447266 1.87822266 -9 1.75 C-8.17628906 1.66878906 -7.35257813 1.58757812 -6.50390625 1.50390625 C-3.403724 1.02920916 -3.63084702 0.1980462 0 0 Z " fill="#162115" transform="translate(562.4375,282.8125)"/>
<path d="M0 0 C0.66 0.33 1.32 0.66 2 1 C-14.10679612 16 -14.10679612 16 -18 16 C-18 15.34 -18 14.68 -18 14 C-17.34 14 -16.68 14 -16 14 C-16 13.34 -16 12.68 -16 12 C-15.360625 11.71125 -14.72125 11.4225 -14.0625 11.125 C-11.84793921 10.17176549 -11.84793921 10.17176549 -11 8 C-10.01 8 -9.02 8 -8 8 C-8 7.34 -8 6.68 -8 6 C-5.76931277 3.2996944 -3.10100683 1.59025991 0 0 Z " fill="#127CC9" transform="translate(632,481)"/>
<path d="M0 0 C0.33 0.66 0.66 1.32 1 2 C-1.04079353 6.62579866 -4.66710336 9.79101659 -8.2578125 13.23046875 C-10.07637387 14.89538811 -10.07637387 14.89538811 -11 17 C-11.66 17 -12.32 17 -13 17 C-11.5479686 13.83715933 -9.77057857 11.23584692 -7.625 8.5 C-7.03976562 7.7471875 -6.45453125 6.994375 -5.8515625 6.21875 C-4.01007066 4.0120678 -2.06288066 1.9992676 0 0 Z " fill="#002545" transform="translate(448,339)"/>
<path d="M0 0 C3.35247246 3.80634566 4.89205528 8.27084305 6.6875 12.9375 C7.00783203 13.73607422 7.32816406 14.53464844 7.65820312 15.35742188 C9.20657868 19.34226045 10.46614917 22.64634263 10 27 C9.8453125 26.0409375 9.8453125 26.0409375 9.6875 25.0625 C9.460625 24.381875 9.23375 23.70125 9 23 C8.01 22.67 7.02 22.34 6 22 C5.67 18.7 5.34 15.4 5 12 C4.01 11.67 3.02 11.34 2 11 C1.24758891 7.34543185 0.59950296 3.68266103 0 0 Z " fill="#44E1DF" transform="translate(666,288)"/>
<path d="M0 0 C8.25 0 16.5 0 25 0 C25 0.33 25 0.66 25 1 C22.28645833 1.33919271 19.57291667 1.67838542 16.859375 2.01757812 C15.75078125 2.15615234 14.6421875 2.29472656 13.5 2.4375 C5.96679688 3.37915039 5.96679688 3.37915039 -1.56640625 4.32080078 C-2.29730469 4.41216309 -3.02820313 4.50352539 -3.78125 4.59765625 C-4.8434375 4.73042969 -5.905625 4.86320313 -7 5 C-6.67 4.34 -6.34 3.68 -6 3 C-4.33333333 2.66666667 -2.66666667 2.33333333 -1 2 C-0.67 1.34 -0.34 0.68 0 0 Z " fill="#26BDDE" transform="translate(491,232)"/>
<path d="M0 0 C-2.73744629 2.73744629 -5.09563829 2.77712832 -8.875 3.5 C-13.71543211 4.35005591 -13.71543211 4.35005591 -18.1953125 6.21875 C-20 7 -20 7 -22.25 6.125 C-22.8275 5.75375 -23.405 5.3825 -24 5 C-21.50418638 4.15190799 -19.00455875 3.32153079 -16.5 2.5 C-15.80390625 2.26152344 -15.1078125 2.02304688 -14.390625 1.77734375 C-9.40894354 0.16290994 -5.23469533 -0.23579709 0 0 Z " fill="#27B9D1" transform="translate(485,197)"/>
<path d="M0 0 C2.62697064 -0.22137393 5.00893964 -0.28162025 7.625 -0.1875 C8.33140625 -0.17396484 9.0378125 -0.16042969 9.765625 -0.14648438 C11.51074128 -0.1111104 13.25546608 -0.05730221 15 0 C15 0.66 15 1.32 15 2 C10.38 2.33 5.76 2.66 1 3 C0.34 4.65 -0.32 6.3 -1 8 C-1.66 8 -2.32 8 -3 8 C-2.45276317 4.62537285 -1.9451 2.91765 0 0 Z " fill="#E4705F" transform="translate(544,797)"/>
<path d="M0 0 C3 1 3 1 4 3 C4.46153846 8.42307692 4.46153846 8.42307692 2.5 10.875 C1.7575 11.431875 1.7575 11.431875 1 12 C-0.65606367 10.34393633 -0.39915554 8.27134998 -0.625 6 C-0.72039063 5.0925 -0.81578125 4.185 -0.9140625 3.25 C-0.94242188 2.5075 -0.97078125 1.765 -1 1 C-0.67 0.67 -0.34 0.34 0 0 Z " fill="#136ED3" transform="translate(553,491)"/>
<path d="M0 0 C0.9075 0.53625 1.815 1.0725 2.75 1.625 C1.76 2.285 0.77 2.945 -0.25 3.625 C-0.806875 4.140625 -1.36375 4.65625 -1.9375 5.1875 C-5.30574866 7.28127619 -8.31503989 7.29708666 -12.25 7.625 C-9.69008376 5.61363724 -7.20409701 3.99654504 -4.25 2.625 C-5.24 1.965 -6.23 1.305 -7.25 0.625 C-4.22502149 -1.58556122 -3.57040661 -1.51055664 0 0 Z " fill="#02253D" transform="translate(499.25,301.375)"/>
<path d="M0 0 C3.03572766 0.33730307 4.01566117 1.01610863 6.1875 3.25 C9.73103533 6.7147901 13.61731526 8.7561418 18 11 C18 11.99 18 12.98 18 14 C13.73087107 12.56140464 10.76608699 10.43185127 7.3125 7.5625 C6.35988281 6.78003906 5.40726563 5.99757813 4.42578125 5.19140625 C2 3 2 3 0 0 Z " fill="#FEC549" transform="translate(577,354)"/>
<path d="M0 0 C1.4164958 4.62365609 0.49931342 8.51130774 -0.3125 13.1875 C-0.44333984 14.01958984 -0.57417969 14.85167969 -0.70898438 15.70898438 C-1.06509823 17.81986216 -1.52476002 19.91271251 -2 22 C-2.66 22.33 -3.32 22.66 -4 23 C-4.65720455 14.94924431 -2.22928846 7.64327471 0 0 Z " fill="#012650" transform="translate(393,346)"/>
<path d="M0 0 C1.32 0 2.64 0 4 0 C4 0.66 4 1.32 4 2 C5.03125 2.144375 6.0625 2.28875 7.125 2.4375 C10.42549813 2.91660457 13.71268341 3.43875083 17 4 C17.33 2.68 17.66 1.36 18 0 C18.66 1.98 19.32 3.96 20 6 C13.1276135 5.63364116 7.2801991 4.90749958 1 2 C0.67 1.34 0.34 0.68 0 0 Z " fill="#192415" transform="translate(570,325)"/>
<path d="M0 0 C2.65614176 0.36969853 3.74758254 0.70475592 5.51953125 2.77734375 C5.94621094 3.49019531 6.37289062 4.20304687 6.8125 4.9375 C7.25207031 5.64777344 7.69164062 6.35804688 8.14453125 7.08984375 C8.42683594 7.72019531 8.70914063 8.35054688 9 9 C8.67 9.66 8.34 10.32 8 11 C7.566875 10.525625 7.13375 10.05125 6.6875 9.5625 C4.97690387 7.76313043 4.97690387 7.76313043 2 7 C0.35179805 4.39757586 0 3.13751221 0 0 Z " fill="#1F74C7" transform="translate(537,464)"/>
<path d="M0 0 C-3.21476468 1.03985555 -5.29718703 0.91039653 -8.5625 0.125 C-14.01685788 -1.07804764 -19.43582471 -1.59802536 -25 -2 C-25 -2.33 -25 -2.66 -25 -3 C-15.60618773 -4.2616507 -8.62996255 -4.10363525 0 0 Z " fill="#32C3D4" transform="translate(539,236)"/>
<path d="M0 0 C1.32 0.33 2.64 0.66 4 1 C4 3.31 4 5.62 4 8 C-1.28 7.67 -6.56 7.34 -12 7 C-11.67 6.34 -11.34 5.68 -11 5 C-6.71 5.33 -2.42 5.66 2 6 C1.34 4.02 0.68 2.04 0 0 Z " fill="#E3D067" transform="translate(587,324)"/>
<path d="M0 0 C-0.125 1.75 -0.125 1.75 -1 4 C-4.0625 6.25 -4.0625 6.25 -7 8 C-7.66 7.67 -8.32 7.34 -9 7 C-5.72340426 0 -5.72340426 0 0 0 Z " fill="#149ADA" transform="translate(481,309)"/>
<path d="M0 0 C0.33 0 0.66 0 1 0 C0.88562349 2.72998676 0.75888594 5.4584582 0.625 8.1875 C0.5940625 8.95642578 0.563125 9.72535156 0.53125 10.51757812 C0.31383889 14.73897711 -0.09743072 18.14072328 -2 22 C-2.66 22 -3.32 22 -4 22 C-2.68 14.74 -1.36 7.48 0 0 Z " fill="#222912" transform="translate(637,360)"/>
<path d="M0 0 C0.66 0.33 1.32 0.66 2 1 C-0.97 5.29 -3.94 9.58 -7 14 C-7.66 13.67 -8.32 13.34 -9 13 C-9 11.68 -9 10.36 -9 9 C-8.01 9 -7.02 9 -6 9 C-5.34 7.35 -4.68 5.7 -4 4 C-3.34 4 -2.68 4 -2 4 C-1.34 2.68 -0.68 1.36 0 0 Z " fill="#1484D1" transform="translate(409,315)"/>
<path d="M0 0 C-1.32 0.33 -2.64 0.66 -4 1 C-4 1.66 -4 2.32 -4 3 C-5.96569827 3.73297224 -7.93154638 4.46554724 -9.8984375 5.1953125 C-11.55648986 5.83018013 -13.19008053 6.52892468 -14.8125 7.25 C-17 8 -17 8 -20 7 C-17.04738074 5.63311253 -14.08709966 4.28370462 -11.125 2.9375 C-10.28324219 2.54755859 -9.44148438 2.15761719 -8.57421875 1.75585938 C-7.76855469 1.39169922 -6.96289062 1.02753906 -6.1328125 0.65234375 C-5.38918457 0.31195068 -4.64555664 -0.02844238 -3.87939453 -0.37915039 C-2 -1 -2 -1 0 0 Z " fill="#24AACC" transform="translate(461,204)"/>
<path d="M0 0 C0.33 0 0.66 0 1 0 C1.33 5.28 1.66 10.56 2 16 C0.02 16.99 0.02 16.99 -2 18 C-1.48758893 11.97099313 -0.930215 5.97995357 0 0 Z " fill="#1377C1" transform="translate(612,482)"/>
<path d="M0 0 C0.66 0 1.32 0 2 0 C2 4.62 2 9.24 2 14 C1.01 13.67 0.02 13.34 -1 13 C-1.07654536 8.48382401 -1.10228696 4.40914783 0 0 Z " fill="#1B68BE" transform="translate(470,392)"/>
<path d="M0 0 C0.66 0 1.32 0 2 0 C2 0.66 2 1.32 2 2 C2.66 2 3.32 2 4 2 C4.28875 2.928125 4.5775 3.85625 4.875 4.8125 C5.8875 8.09791667 5.8875 8.09791667 8 11 C8.125 13.6875 8.125 13.6875 8 16 C7.34 16 6.68 16 6 16 C4.02 10.72 2.04 5.44 0 0 Z " fill="#182713" transform="translate(583,294)"/>
<path d="M0 0 C0 0.66 0 1.32 0 2 C-0.78375 2.61875 -1.5675 3.2375 -2.375 3.875 C-6.70780185 7.38250626 -7.2606204 10.57788292 -8 16 C-8.33 16 -8.66 16 -9 16 C-9.42014232 9.90793639 -9.06715472 6.88058567 -5 2 C-2 0 -2 0 0 0 Z " fill="#FEE4DC" transform="translate(417,811)"/>
<path d="M0 0 C4 4 4 4 4.4375 7 C4 10 4 10 1 14 C0.67 9.38 0.34 4.76 0 0 Z " fill="#D2604C" transform="translate(620,405)"/>
<path d="M0 0 C0.33 0 0.66 0 1 0 C1.38910684 2.93626007 1.76176981 5.87302605 2.125 8.8125 C2.23714844 9.64587891 2.34929688 10.47925781 2.46484375 11.33789062 C2.56152344 12.14033203 2.65820312 12.94277344 2.7578125 13.76953125 C2.8520752 14.50792236 2.94633789 15.24631348 3.04345703 16.00708008 C3 18 3 18 1 21 C0.07907719 16.34462644 -0.12205997 11.85314567 -0.0625 7.125 C-0.05798828 6.43664062 -0.05347656 5.74828125 -0.04882812 5.0390625 C-0.03716336 3.35933665 -0.01923271 1.67965625 0 0 Z " fill="#36749E" transform="translate(510,384)"/>
<path d="M0 0 C0 3.42583257 -0.35337989 4.9931285 -2 8 C-4.2083871 9.87177383 -6.55074465 11.46102939 -9 13 C-9.66 12.67 -10.32 12.34 -11 12 C-7.37 8.04 -3.74 4.08 0 0 Z " fill="#162B3A" transform="translate(373,216)"/>
<path d="M0 0 C0.99 0.495 0.99 0.495 2 1 C2.281765 3.32383502 2.45171684 5.66176824 2.5625 8 C2.38416046 12.32140135 2.38416046 12.32140135 4 16 C4.04080783 17.99958364 4.04254356 20.00045254 4 22 C2 21 2 21 1.39477539 19.19433594 C1.01330213 17.07393911 0.79763215 15.04106337 0.68359375 12.890625 C0.64169922 12.13652344 0.59980469 11.38242187 0.55664062 10.60546875 C0.51732422 9.82816406 0.47800781 9.05085938 0.4375 8.25 C0.39431641 7.45722656 0.35113281 6.66445313 0.30664062 5.84765625 C0.20097009 3.89862185 0.10002034 1.94933252 0 0 Z " fill="#0947C4" transform="translate(471,465)"/>
<path d="M0 0 C0.58203125 1.890625 0.58203125 1.890625 1 4 C-0.3125 5.75 -0.3125 5.75 -2 7 C-2.66 7 -3.32 7 -4 7 C-4.28875 7.639375 -4.5775 8.27875 -4.875 8.9375 C-6 11 -6 11 -8 12 C-7.41463247 8.33939179 -5.916761 6.45464836 -3.4375 3.75 C-2.79683594 3.04359375 -2.15617188 2.3371875 -1.49609375 1.609375 C-0.75552734 0.81273437 -0.75552734 0.81273437 0 0 Z M-10 12 C-8 13 -8 13 -8 13 Z " fill="#199AD1" transform="translate(636,431)"/>
<path d="M0 0 C1.2065625 0.0309375 1.2065625 0.0309375 2.4375 0.0625 C-2.56215488 4.16935937 -6.41003508 4.18428208 -12.8125 4.125 C-14.07578125 4.11597656 -15.3390625 4.10695313 -16.640625 4.09765625 C-17.60484375 4.08605469 -18.5690625 4.07445312 -19.5625 4.0625 C-19.5625 3.7325 -19.5625 3.4025 -19.5625 3.0625 C-18.41910156 2.92972656 -17.27570312 2.79695313 -16.09765625 2.66015625 C-14.6067438 2.4819969 -13.11585982 2.30359918 -11.625 2.125 C-10.49288086 1.99448242 -10.49288086 1.99448242 -9.33789062 1.86132812 C-5.96739036 1.45324065 -3.13857738 0.07655067 0 0 Z " fill="#D05B5C" transform="translate(614.5625,422.9375)"/>
<path d="M0 0 C4.91935902 4.11619836 9.52647956 8.40410362 14 13 C10.47967572 13 9.5614657 12.29648649 7 10 C7 9.34 7 8.68 7 8 C6.34 8 5.68 8 5 8 C0 2.52380952 0 2.52380952 0 0 Z " fill="#321622" transform="translate(545,397)"/>
<path d="M0 0 C-3.3 3.3 -6.6 6.6 -10 10 C-10.33 9.01 -10.66 8.02 -11 7 C-4.42105263 -2.21052632 -4.42105263 -2.21052632 0 0 Z " fill="#002443" transform="translate(407,236)"/>
<path d="M0 0 C-1.49041773 3.79379058 -3.69062512 5.68343758 -7 8 C-7.66 8 -8.32 8 -9 8 C-8.875 6.25 -8.875 6.25 -8 4 C-2.77777778 0 -2.77777778 0 0 0 Z " fill="#138ED0" transform="translate(454,319)"/>
<path d="M0 0 C0.68707555 2.49064888 1 4.37886292 1 7 C3.97 7.495 3.97 7.495 7 8 C4.83032311 8.95465783 3.43671207 9.14401212 1.17578125 8.3984375 C-0.5684743 7.64129615 -2.28627131 6.82390802 -4 6 C-2.68 4.02 -1.36 2.04 0 0 Z " fill="#0A37A5" transform="translate(469,512)"/>
<path d="M0 0 C-0.33 0.66 -0.66 1.32 -1 2 C-5.54093172 3.41904116 -10.2943099 3.09226843 -15 3 C-11.07677056 -0.92322944 -5.25785342 -0.10515707 0 0 Z " fill="#2CC4D5" transform="translate(501,194)"/>
<path d="M0 0 C2.64 0.33 5.28 0.66 8 1 C4.98509443 3.00993705 2.7850073 3.72623341 -0.6875 4.625 C-1.68136719 4.88539063 -2.67523438 5.14578125 -3.69921875 5.4140625 C-4.45847656 5.60742188 -5.21773438 5.80078125 -6 6 C-6 5.34 -6 4.68 -6 4 C-4.35 3.67 -2.7 3.34 -1 3 C-0.67 2.01 -0.34 1.02 0 0 Z " fill="#012D3F" transform="translate(469,196)"/>
<path d="M0 0 C0.33 0 0.66 0 1 0 C1.36263859 5.8022175 0.25684543 9.63999211 -2 15 C-2.33 15 -2.66 15 -3 15 C-2.5547115 9.72684667 -1.91626837 4.98229776 0 0 Z " fill="#0A5FC5" transform="translate(400,382)"/>
<path d="M0 0 C3.97497544 3.40712181 5.86793788 7.32760855 8 12 C7.01 11.67 6.02 11.34 5 11 C3.8125 8.4375 3.8125 8.4375 3 6 C2.34 6 1.68 6 1 6 C0.67 4.02 0.34 2.04 0 0 Z " fill="#F47F32" transform="translate(548,320)"/>
<path d="M0 0 C0.66 0 1.32 0 2 0 C1.88557539 1.60495567 1.75805306 3.20898119 1.625 4.8125 C1.55539062 5.70582031 1.48578125 6.59914063 1.4140625 7.51953125 C1 10 1 10 -1 13 C-1.66 12.67 -2.32 12.34 -3 12 C-2.01 8.04 -1.02 4.08 0 0 Z " fill="#1D9ACB" transform="translate(640,417)"/>
<path d="M0 0 C1 3 1 3 -0.14453125 5.48046875 C-0.97017578 6.82044922 -0.97017578 6.82044922 -1.8125 8.1875 C-2.35519531 9.08855469 -2.89789063 9.98960937 -3.45703125 10.91796875 C-3.96621094 11.60503906 -4.47539062 12.29210937 -5 13 C-5.66 13 -6.32 13 -7 13 C-5.35821735 8.22390502 -2.73453298 4.20617096 0 0 Z " fill="#00294E" transform="translate(434,356)"/>
<path d="M0 0 C0 3.11738233 -0.34718774 3.98083184 -1.875 6.5625 C-2.22304688 7.16191406 -2.57109375 7.76132812 -2.9296875 8.37890625 C-4 10 -4 10 -6 12 C-6.36619551 7.727719 -5.52079495 5.4544227 -3 2 C-2.01 1.34 -1.02 0.68 0 0 Z " fill="#0A70D5" transform="translate(414,357)"/>
<path d="M0 0 C0.33 0.66 0.66 1.32 1 2 C-0.5224249 5.57769851 -2.02930459 8.45368965 -5 11 C-5.66 10.67 -6.32 10.34 -7 10 C-3.535 5.05 -3.535 5.05 0 0 Z " fill="#002E4C" transform="translate(660,450)"/>
<path d="M0 0 C0.99 0.33 1.98 0.66 3 1 C1.8758824 2.29243468 0.75067408 3.58392075 -0.375 4.875 C-1.00148438 5.59429687 -1.62796875 6.31359375 -2.2734375 7.0546875 C-3.47426834 8.4076598 -4.7208345 9.7208345 -6 11 C-6 9.68 -6 8.36 -6 7 C-5.34 7 -4.68 7 -4 7 C-3.34 5.35 -2.68 3.7 -2 2 C-1.34 2 -0.68 2 0 2 C0 1.34 0 0.68 0 0 Z " fill="#002549" transform="translate(419,345)"/>
<path d="M0 0 C-1.62170379 1.00533667 -3.24747237 2.00411907 -4.875 3 C-6.23238281 3.8353125 -6.23238281 3.8353125 -7.6171875 4.6875 C-10 6 -10 6 -12 6 C-12 5.34 -12 4.68 -12 4 C-10.35 3.34 -8.7 2.68 -7 2 C-7 1.34 -7 0.68 -7 0 C-3.98968256 -0.93423645 -3.13349732 -1.04449911 0 0 Z " fill="#002F49" transform="translate(443,211)"/>
<path d="M0 0 C2.12161334 2.12161334 2.92986249 3.7733159 4.125 6.5 C4.47820313 7.2940625 4.83140625 8.088125 5.1953125 8.90625 C6 11 6 11 6 13 C5.34 13 4.68 13 4 13 C3.32404685 11.58774074 2.65959941 10.16997095 2 8.75 C1.62875 7.96109375 1.2575 7.1721875 0.875 6.359375 C0 4 0 4 0 0 Z " fill="#00254A" transform="translate(546,486)"/>
<path d="M0 0 C0 3.63053243 -1.2278255 4.95750337 -3.5546875 7.63671875 C-5.49136818 9.46347972 -7.46012234 10.27432067 -10 11 C-7.22169429 7.3984926 -4.2594334 4.17134061 -1 1 C-0.67 0.67 -0.34 0.34 0 0 Z " fill="#002D4D" transform="translate(642,473)"/>
<path d="M0 0 C6 7.71428571 6 7.71428571 6 11 C3.59071265 10.03628506 2.23992991 9.34789837 0.75 7.1875 C-0.11081611 4.67678635 -0.14647297 2.63651351 0 0 Z " fill="#011D50" transform="translate(369,443)"/>
<path d="M0 0 C1.13732426 3.40401948 0.83989957 5.77456664 0.0625 9.25 C-0.13214844 10.14203125 -0.32679688 11.0340625 -0.52734375 11.953125 C-0.68332031 12.62859375 -0.83929688 13.3040625 -1 14 C-3 11 -3 11 -3 8 C-2.34 8 -1.68 8 -1 8 C-1.020625 6.865625 -1.04125 5.73125 -1.0625 4.5625 C-1 1 -1 1 0 0 Z " fill="#022F69" transform="translate(394,400)"/>
<path d="M0 0 C3.62528568 -0.20140476 5.86501708 0.14223235 9 2 C9 2.66 9 3.32 9 4 C10.32 4.33 11.64 4.66 13 5 C12.01 5.495 12.01 5.495 11 6 C8.3984375 5.00390625 8.3984375 5.00390625 5.375 3.5625 C3.87066406 2.85287109 3.87066406 2.85287109 2.3359375 2.12890625 C1.56507813 1.75636719 0.79421875 1.38382812 0 1 C0 0.67 0 0.34 0 0 Z " fill="#FFC445" transform="translate(606,375)"/>
<path d="M0 0 C0.66 0.33 1.32 0.66 2 1 C0.8141763 4.37503669 -0.27573689 6.64722731 -3 9 C-3 6.12862585 -2.72886734 3.7696959 -2 1 C-1.34 0.67 -0.68 0.34 0 0 Z " fill="#0A2C44" transform="translate(492,344)"/>
<path d="M0 0 C0.33 0.99 0.66 1.98 1 3 C-0.14453125 4.82421875 -0.14453125 4.82421875 -1.8125 6.6875 C-2.35519531 7.31011719 -2.89789063 7.93273437 -3.45703125 8.57421875 C-5 10 -5 10 -7 10 C-5.33248852 6.05860922 -2.77289351 3.2107188 0 0 Z " fill="#002848" transform="translate(413,313)"/>
<path d="M0 0 C-2.85306797 2.32472205 -5.54074837 3.7508258 -9 5 C-9 4.34 -9 3.68 -9 3 C-9.99 2.67 -10.98 2.34 -12 2 C-7.8803623 0.70756464 -4.33168317 -0.26252625 0 0 Z " fill="#2887B3" transform="translate(497,303)"/>
<path d="M0 0 C3.26008643 3.16952847 6.22237877 6.39937989 9 10 C7 9 5 8 3 7 C3 6.34 3 5.68 3 5 C2.01 4.67 1.02 4.34 0 4 C0 2.68 0 1.36 0 0 Z " fill="#FEECE2" transform="translate(395,836)"/>
<path d="M0 0 C0.33 1.32 0.66 2.64 1 4 C0.21625 4.2475 -0.5675 4.495 -1.375 4.75 C-4.32317108 6.15389099 -4.9024777 7.00675737 -6 10 C-6 6.41087588 -5.33563446 5.89142971 -3 3.3125 C-2.443125 2.68988281 -1.88625 2.06726563 -1.3125 1.42578125 C-0.879375 0.95527344 -0.44625 0.48476563 0 0 Z " fill="#E76953" transform="translate(402,803)"/>
<path d="M0 0 C0 0.66 0 1.32 0 2 C-1.4117783 2.53394179 -2.82970244 3.05165104 -4.25 3.5625 C-5.03890625 3.85253906 -5.8278125 4.14257812 -6.640625 4.44140625 C-9.19103452 5.04522837 -10.55322229 4.8473932 -13 4 C-11.2097939 3.32942113 -9.41778511 2.6636531 -7.625 2 C-6.62726563 1.62875 -5.62953125 1.2575 -4.6015625 0.875 C-2 0 -2 0 0 0 Z " fill="#001D58" transform="translate(391,503)"/>
<path d="M0 0 C0.99 0.33 1.98 0.66 3 1 C0.69 3.64 -1.62 6.28 -4 9 C-4.33 8.01 -4.66 7.02 -5 6 C-4.34 6 -3.68 6 -3 6 C-2.87625 5.38125 -2.7525 4.7625 -2.625 4.125 C-2 2 -2 2 0 0 Z " fill="#1692D1" transform="translate(648,463)"/>
<path d="M0 0 C2.5654594 2.5654594 2.54046087 4.47686668 3 8 C3.66 8 4.32 8 5 8 C6 11 6 11 5.0625 13.1875 C4.5365625 14.0846875 4.5365625 14.0846875 4 15 C3.32779649 13.06441401 2.66241923 11.12645628 2 9.1875 C1.62875 8.10855469 1.2575 7.02960938 0.875 5.91796875 C0 3 0 3 0 0 Z " fill="#002F3A" transform="translate(674,304)"/>
<path d="M0 0 C0.99 0.495 0.99 0.495 2 1 C2.484375 2.77734375 2.484375 2.77734375 2.75 4.9375 C2.84796875 5.64777344 2.9459375 6.35804688 3.046875 7.08984375 C3 9 3 9 1 11 C-0.17571451 7.32589215 -0.07366746 3.83070817 0 0 Z " fill="#3583B9" transform="translate(512,402)"/>
<path d="M0 0 C0.99 0.33 1.98 0.66 3 1 C-1.455 4.465 -1.455 4.465 -6 8 C-6.33 7.34 -6.66 6.68 -7 6 C-6.34 6 -5.68 6 -5 6 C-4.34 4.68 -3.68 3.36 -3 2 C-2.01 2 -1.02 2 0 2 C0 1.34 0 0.68 0 0 Z " fill="#1991C9" transform="translate(469,317)"/>
<path d="M0 0 C0.33 0 0.66 0 1 0 C1.53154742 1.60064843 2.04988353 3.20568874 2.5625 4.8125 C2.85253906 5.70582031 3.14257812 6.59914063 3.44140625 7.51953125 C4 10 4 10 3 13 C0.59932894 10.59932894 0.44215079 9.22778045 -0.1875 5.9375 C-0.36667969 5.03902344 -0.54585937 4.14054687 -0.73046875 3.21484375 C-0.81941406 2.48394531 -0.90835938 1.75304687 -1 1 C-0.67 0.67 -0.34 0.34 0 0 Z " fill="#F58231" transform="translate(543,305)"/>
<path d="M0 0 C0.66 0.33 1.32 0.66 2 1 C-3.14285714 7.57142857 -3.14285714 7.57142857 -7 9 C-5.44499019 5.18315774 -2.96404505 2.80804268 0 0 Z " fill="#1385C6" transform="translate(641,472)"/>
<path d="M0 0 C1.65 0 3.3 0 5 0 C5 3.10551666 4.4606285 4.35261084 3 7 C0 2.25 0 2.25 0 0 Z " fill="#2571BB" transform="translate(529,454)"/>
<path d="M0 0 C2 4 2 4 1.3125 6.1875 C0 8 0 8 -3 9 C-2.01 6.03 -1.02 3.06 0 0 Z " fill="#002B44" transform="translate(672,426)"/>
<path d="M0 0 C0.33 0.66 0.66 1.32 1 2 C-0.89732848 6.11087838 -3.0054207 7.94872955 -7 10 C-5.33248852 6.05860922 -2.77289351 3.2107188 0 0 Z " fill="#18161A" transform="translate(630,387)"/>
<path d="M0 0 C1.485 0.99 1.485 0.99 3 2 C3.1875 4.625 3.1875 4.625 3 7 C1.68 7.33 0.36 7.66 -1 8 C-1.125 2.25 -1.125 2.25 0 0 Z " fill="#24CBD2" transform="translate(681,346)"/>
<path d="M0 0 C2.26185454 2.26185454 3.03921617 3.96983561 4 7 C3.67 7.99 3.34 8.98 3 10 C2.67 9.01 2.34 8.02 2 7 C1.01 6.67 0.02 6.34 -1 6 C-0.67 4.02 -0.34 2.04 0 0 Z " fill="#E9D15F" transform="translate(587,305)"/>
<path d="M0 0 C1.31611677 0.95336021 2.62778961 1.91285774 3.9375 2.875 C4.66839844 3.40867188 5.39929688 3.94234375 6.15234375 4.4921875 C8 6 8 6 9 8 C4.75153925 7.52794881 2.73180712 5.11122478 0 2 C0 1.34 0 0.68 0 0 Z " fill="#49F0ED" transform="translate(614,225)"/>
<path d="M0 0 C2 2 2 2 3 6 C0.03 5.67 -2.94 5.34 -6 5 C-6 4.67 -6 4.34 -6 4 C-4.02 4 -2.04 4 0 4 C0 2.68 0 1.36 0 0 Z " fill="#182008" transform="translate(587,325)"/>
<path d="M0 0 C0.66 2.97 1.32 5.94 2 9 C-0.66735273 6.51047079 -2.55746343 4.36591866 -4 1 C-2 0 -2 0 0 0 Z " fill="#1E2813" transform="translate(563,312)"/>
<path d="M0 0 C2.31 0.33 4.62 0.66 7 1 C4.60236815 3.39763185 3.66726502 3.34280586 0.375 3.625 C-0.44226563 3.69976562 -1.25953125 3.77453125 -2.1015625 3.8515625 C-2.72804688 3.90054687 -3.35453125 3.94953125 -4 4 C-2.68 3.67 -1.36 3.34 0 3 C0 2.01 0 1.02 0 0 Z " fill="#26BDE2" transform="translate(530,280)"/>
<path d="M0 0 C0.66 0 1.32 0 2 0 C0.73058503 3.91402949 -0.51167694 5.79072873 -4 8 C-3.40312566 4.65750371 -2.26396123 2.53563658 0 0 Z " fill="#01364E" transform="translate(648,383)"/>
<path d="M0 0 C0.62109375 1.796875 0.62109375 1.796875 1 4 C-0.9375 7.25 -0.9375 7.25 -3 10 C-3.33 9.34 -3.66 8.68 -4 8 C-3.22265625 6.0546875 -3.22265625 6.0546875 -2.0625 3.875 C-1.49208984 2.78832031 -1.49208984 2.78832031 -0.91015625 1.6796875 C-0.60980469 1.12539063 -0.30945313 0.57109375 0 0 Z " fill="#002447" transform="translate(400,331)"/>
<path d="M0 0 C0 0.66 0 1.32 0 2 C-0.66 2 -1.32 2 -2 2 C-2 2.66 -2 3.32 -2 4 C-4.31 4 -6.62 4 -9 4 C-6.43425105 1.43425105 -3.68548192 0 0 0 Z " fill="#1892CA" transform="translate(470,311)"/>
<path d="M0 0 C3.34373475 0.55728913 6.03312999 1.35173889 9 3 C8.67 3.66 8.34 4.32 8 5 C1.125 2.25 1.125 2.25 0 0 Z " fill="#2BBDE3" transform="translate(526,271)"/>
<path d="M0 0 C0.66 0.66 1.32 1.32 2 2 C0.35 4.31 -1.3 6.62 -3 9 C-3.33 7.68 -3.66 6.36 -4 5 C-2.0625 2.25 -2.0625 2.25 0 0 Z " fill="#002B4E" transform="translate(388,252)"/>
<path d="M0 0 C0.33 0 0.66 0 1 0 C1 2.31 1 4.62 1 7 C2.32 7.33 3.64 7.66 5 8 C3.02 8.33 1.04 8.66 -1 9 C-0.67 6.03 -0.34 3.06 0 0 Z " fill="#0D369E" transform="translate(379,498)"/>
<path d="M0 0 C1.32 0.33 2.64 0.66 4 1 C4 3.31 4 5.62 4 8 C3.34 7.67 2.68 7.34 2 7 C1.26924352 4.6859378 0.59861742 2.35171131 0 0 Z " fill="#D2BF4D" transform="translate(587,324)"/>
<path d="M0 0 C0 0.66 0 1.32 0 2 C-4.15267176 5.11450382 -4.15267176 5.11450382 -7.3125 4.6875 C-7.869375 4.460625 -8.42625 4.23375 -9 4 C-2.25 0 -2.25 0 0 0 Z " fill="#013147" transform="translate(470,243)"/>
</svg>
